<svg id="svg" version="1.1" width="400" height="317.3333333333333" viewBox="0 0 400 317.3333333333333" xmlns="http://www.w3.org/2000/svg" xmlns:xlink="http://www.w3.org/1999/xlink" ><g id="svgg"><path id="path0" d="M140.159 44.444 C 140.028 44.656,159.368 44.762,197.937 44.762 C 236.505 44.762,255.845 44.656,255.714 44.444 C 255.443 44.005,140.430 44.005,140.159 44.444 M133.413 55.784 C 133.194 55.862,133.016 56.159,133.016 56.444 C 133.016 56.915,133.064 56.913,133.553 56.425 C 134.126 55.851,134.061 55.553,133.413 55.784 M136.795 71.941 C 136.427 72.385,136.450 72.439,136.968 72.338 C 137.297 72.274,137.626 72.044,137.699 71.825 C 137.887 71.259,137.299 71.335,136.795 71.941 M271.429 73.322 C 271.429 73.491,271.725 73.787,272.088 73.981 C 272.690 74.304,272.716 74.278,272.394 73.675 C 272.031 72.997,271.429 72.777,271.429 73.322 M124.127 75.079 C 123.803 75.469,123.825 75.556,124.247 75.556 C 124.530 75.556,124.762 75.341,124.762 75.079 C 124.762 74.817,124.708 74.603,124.642 74.603 C 124.576 74.603,124.344 74.817,124.127 75.079 M40.397 83.819 C 40.004 83.977,39.683 84.254,39.683 84.434 C 39.683 84.945,40.950 84.819,41.154 84.288 C 41.360 83.751,59.231 83.940,59.825 84.485 C 60.245 84.870,78.943 84.847,78.556 84.462 C 77.883 83.794,41.965 83.189,40.397 83.819 M179.409 84.103 C 179.839 84.453,180.209 84.573,180.277 84.384 C 180.411 84.008,179.737 83.504,179.092 83.497 C 178.840 83.494,178.973 83.747,179.409 84.103 M223.254 83.967 C 222.802 84.480,222.747 84.762,223.098 84.762 C 223.231 84.762,223.518 84.476,223.736 84.127 C 224.189 83.402,223.850 83.290,223.254 83.967 M327.124 83.858 C 339.134 84.024,346.271 84.240,346.473 84.442 C 346.973 84.941,356.278 84.867,356.112 84.365 C 355.915 83.771,348.657 83.577,326.984 83.586 L 308.095 83.595 327.124 83.858 M294.067 84.047 C 296.653 84.100,300.796 84.100,303.273 84.047 C 305.751 83.993,303.635 83.949,298.571 83.950 C 293.508 83.950,291.481 83.994,294.067 84.047 M313.274 84.365 C 315.947 84.418,320.233 84.418,322.797 84.364 C 325.362 84.311,323.175 84.267,317.937 84.268 C 312.698 84.268,310.600 84.311,313.274 84.365 M48.027 84.679 C 49.038 84.743,50.609 84.742,51.520 84.678 C 52.430 84.614,51.603 84.562,49.683 84.563 C 47.762 84.564,47.017 84.616,48.027 84.679 M334.694 84.679 C 335.704 84.743,337.276 84.742,338.186 84.678 C 339.096 84.614,338.270 84.562,336.349 84.563 C 334.429 84.564,333.684 84.616,334.694 84.679 M357.887 89.365 C 357.888 90.762,357.944 91.294,358.011 90.547 C 358.078 89.800,358.077 88.658,358.009 88.007 C 357.940 87.357,357.885 87.968,357.887 89.365 M239.082 91.228 C 238.799 91.569,238.793 91.748,239.060 91.912 C 239.578 92.232,240.220 91.522,239.796 91.098 C 239.566 90.868,239.348 90.908,239.082 91.228 M215.701 92.085 C 215.329 92.687,215.872 92.836,216.425 92.283 C 216.920 91.788,216.921 91.746,216.436 91.746 C 216.147 91.746,215.816 91.898,215.701 92.085 M50.924 94.240 C 51.126 94.567,64.941 94.855,93.016 95.117 L 113.810 95.310 114.244 94.560 C 114.583 93.974,114.586 93.896,114.260 94.206 C 113.724 94.714,81.741 94.791,81.429 94.286 C 81.302 94.081,75.811 93.968,65.994 93.968 C 57.609 93.968,50.832 94.091,50.924 94.240 M102.637 94.205 C 104.698 94.261,107.984 94.261,109.939 94.205 C 111.893 94.149,110.206 94.104,106.190 94.104 C 102.175 94.105,100.576 94.150,102.637 94.205 M334.778 94.256 C 335.280 94.736,355.952 94.842,356.111 94.365 C 356.215 94.053,353.926 93.968,345.360 93.968 C 338.835 93.968,334.597 94.084,334.778 94.256 M112.981 96.587 C 112.608 97.298,112.610 97.298,113.287 96.697 C 114.044 96.025,114.113 95.873,113.662 95.873 C 113.494 95.873,113.187 96.194,112.981 96.587 M210.794 96.648 C 210.794 96.900,210.901 97.170,211.032 97.250 C 211.342 97.437,212.084 96.635,211.833 96.383 C 211.469 96.019,210.794 96.191,210.794 96.648 M271.746 96.628 C 271.746 96.694,271.960 96.925,272.222 97.143 C 272.612 97.467,272.698 97.445,272.698 97.023 C 272.698 96.740,272.484 96.508,272.222 96.508 C 271.960 96.508,271.746 96.562,271.746 96.628 M275.873 104.564 C 275.873 104.630,276.087 104.862,276.349 105.079 C 276.739 105.403,276.825 105.381,276.825 104.960 C 276.825 104.676,276.611 104.444,276.349 104.444 C 276.087 104.444,275.873 104.498,275.873 104.564 M191.746 118.928 C 191.746 119.350,191.832 119.371,192.222 119.048 C 192.484 118.830,192.698 118.598,192.698 118.533 C 192.698 118.467,192.484 118.413,192.222 118.413 C 191.960 118.413,191.746 118.644,191.746 118.928 M98.441 125.661 C 98.206 126.101,98.242 126.243,98.589 126.243 C 98.841 126.243,98.977 126.173,98.892 126.087 C 98.806 126.002,98.895 125.740,99.089 125.505 C 99.340 125.204,99.342 125.079,99.098 125.079 C 98.908 125.079,98.612 125.341,98.441 125.661 M286.349 126.349 C 286.536 126.698,286.849 126.984,287.044 126.984 C 287.240 126.984,287.141 126.698,286.825 126.349 C 286.509 126.000,286.196 125.714,286.130 125.714 C 286.064 125.714,286.162 126.000,286.349 126.349 M0.000 139.169 C 0.000 144.295,0.010 144.373,0.714 144.562 C 3.029 145.182,94.962 144.757,94.762 144.127 C 94.651 143.778,94.703 143.492,94.878 143.492 C 95.466 143.492,95.569 142.333,95.085 141.172 C 94.479 139.722,94.468 138.112,95.059 137.268 C 95.310 136.910,95.464 136.342,95.401 136.007 C 95.338 135.671,95.276 135.075,95.262 134.683 L 95.238 133.968 47.619 133.968 L 0.000 133.968 0.000 139.169 M301.541 134.737 C 301.348 135.161,300.816 135.601,300.359 135.715 C 297.814 136.354,297.996 141.538,300.605 142.741 C 301.329 143.075,301.892 143.560,301.897 143.852 C 301.911 144.745,302.321 144.753,349.206 144.754 C 398.233 144.755,397.206 144.779,397.743 143.600 C 398.235 142.521,398.211 134.846,397.714 134.349 C 397.421 134.056,386.305 133.968,349.612 133.968 L 301.891 133.968 301.541 134.737 M103.462 138.608 C 103.093 139.052,103.117 139.105,103.635 139.005 C 103.964 138.941,104.293 138.710,104.365 138.492 C 104.554 137.926,103.965 138.001,103.462 138.608 M301.093 145.847 C 300.754 146.095,300.561 146.381,300.664 146.484 C 300.766 146.587,301.110 146.384,301.427 146.034 C 302.101 145.288,301.963 145.211,301.093 145.847 M110.159 153.492 C 110.376 153.754,110.675 153.968,110.823 153.968 C 110.970 153.968,111.009 153.754,110.908 153.492 C 110.808 153.230,110.509 153.016,110.245 153.016 C 109.853 153.016,109.837 153.104,110.159 153.492 M291.984 163.517 C 291.388 163.865,291.232 164.444,291.735 164.444 C 291.903 164.444,292.194 164.159,292.381 163.810 C 292.767 163.088,292.747 163.073,291.984 163.517 M286.561 175.000 C 286.241 175.335,286.039 175.669,286.113 175.743 C 286.187 175.817,286.507 175.589,286.825 175.238 C 287.571 174.414,287.329 174.197,286.561 175.000 M210.986 180.231 C 210.880 180.337,210.794 180.614,210.794 180.847 C 210.794 181.294,211.608 181.436,211.853 181.032 C 212.041 180.721,211.238 179.979,210.986 180.231 M321.190 182.804 C 321.823 183.467,322.071 183.430,321.795 182.712 C 321.692 182.443,321.388 182.222,321.121 182.222 C 320.710 182.222,320.720 182.312,321.190 182.804 M214.775 186.010 C 214.541 186.390,215.138 186.766,215.561 186.505 C 215.916 186.285,215.683 185.714,215.238 185.714 C 215.084 185.714,214.876 185.847,214.775 186.010 M357.885 187.937 C 357.885 189.246,357.941 189.782,358.009 189.127 C 358.078 188.472,358.078 187.401,358.009 186.746 C 357.941 186.091,357.885 186.627,357.885 187.937 M356.986 191.744 C 356.460 192.325,356.456 192.381,356.945 192.381 C 357.239 192.381,357.565 192.161,357.668 191.891 C 357.964 191.121,357.618 191.046,356.986 191.744 M49.287 191.825 C 49.374 192.087,50.224 192.245,51.773 192.288 C 53.068 192.325,55.412 192.444,56.983 192.552 C 58.554 192.661,59.753 192.663,59.648 192.558 C 59.542 192.452,58.442 192.356,57.203 192.345 C 55.674 192.330,54.832 192.180,54.579 191.876 C 54.080 191.274,49.085 191.226,49.287 191.825 M285.556 191.746 C 285.663 191.921,286.735 192.063,287.937 192.063 C 289.138 192.063,290.210 192.206,290.317 192.381 C 290.543 192.746,296.825 192.823,296.826 192.460 C 296.827 192.329,295.469 192.268,293.809 192.323 C 291.297 192.408,290.758 192.341,290.599 191.927 C 290.448 191.532,289.884 191.429,287.884 191.429 C 286.282 191.429,285.431 191.545,285.556 191.746 M162.222 195.323 C 162.222 195.798,163.083 196.706,163.314 196.474 C 163.382 196.405,163.164 196.012,162.830 195.600 C 162.416 195.089,162.222 195.001,162.222 195.323 M271.825 204.356 C 271.607 204.434,271.429 204.710,271.429 204.970 C 271.429 205.371,271.506 205.365,271.943 204.928 C 272.501 204.370,272.453 204.132,271.825 204.356 " stroke="none" fill="#040404" fill-rule="evenodd"></path><path id="path1" d="M139.365 45.227 C 139.365 45.483,139.079 45.845,138.730 46.032 C 138.005 46.420,137.867 47.881,138.492 48.555 C 138.710 48.790,138.746 48.906,138.571 48.814 C 137.805 48.409,136.776 49.191,136.872 50.105 C 136.970 51.041,136.035 52.836,135.593 52.563 C 135.454 52.477,135.321 52.907,135.298 53.518 C 135.275 54.129,135.385 54.550,135.543 54.452 C 135.700 54.355,135.913 54.412,136.016 54.578 C 136.124 54.752,135.863 54.819,135.403 54.736 C 134.916 54.648,134.603 54.738,134.603 54.967 C 134.603 55.174,134.511 55.252,134.399 55.140 C 134.287 55.028,134.379 54.715,134.603 54.445 C 134.946 54.031,134.928 53.985,134.489 54.154 C 134.182 54.272,133.968 54.710,133.968 55.223 C 133.968 55.701,133.674 56.358,133.315 56.683 C 132.878 57.079,132.721 57.507,132.839 57.979 C 133.013 58.669,132.348 59.683,131.723 59.683 C 131.561 59.683,131.429 59.897,131.429 60.159 C 131.429 60.421,131.589 60.635,131.785 60.635 C 132.017 60.635,131.989 60.822,131.706 61.172 C 131.330 61.635,131.335 61.671,131.746 61.429 C 132.156 61.187,132.162 61.223,131.790 61.681 C 131.552 61.974,131.444 62.439,131.549 62.714 C 131.694 63.091,131.566 63.189,131.029 63.115 C 130.459 63.035,130.298 63.189,130.217 63.889 C 130.127 64.674,129.841 64.912,129.127 64.799 C 128.996 64.779,128.889 64.920,128.889 65.113 C 128.889 65.307,129.079 65.392,129.312 65.302 C 129.545 65.213,129.735 65.328,129.735 65.557 C 129.735 65.791,129.480 65.926,129.153 65.863 C 128.720 65.779,128.571 65.945,128.571 66.510 C 128.571 66.928,128.335 67.402,128.046 67.564 C 127.722 67.746,127.599 68.061,127.725 68.390 C 127.845 68.703,127.800 68.842,127.615 68.728 C 127.443 68.621,127.302 68.765,127.302 69.048 C 127.302 69.374,127.446 69.474,127.698 69.323 C 128.015 69.133,128.016 69.183,127.701 69.571 C 127.484 69.839,127.377 70.128,127.462 70.213 C 127.547 70.298,127.295 70.356,126.903 70.343 C 126.296 70.321,126.190 70.482,126.187 71.429 C 126.183 72.619,125.872 73.333,125.359 73.333 C 125.185 73.333,125.145 73.155,125.270 72.937 C 125.401 72.710,125.376 72.651,125.214 72.800 C 124.920 73.068,124.892 73.198,124.810 74.683 C 124.775 75.311,124.593 75.556,124.159 75.556 C 123.661 75.556,123.565 75.773,123.604 76.811 C 123.643 77.868,123.538 78.095,122.937 78.246 C 122.278 78.411,122.087 78.887,122.137 80.238 C 122.145 80.456,121.971 80.635,121.750 80.635 C 121.044 80.635,120.601 81.422,121.039 81.895 C 121.347 82.228,121.346 82.269,121.032 82.091 C 120.769 81.943,120.635 82.094,120.635 82.540 C 120.635 82.909,120.776 83.125,120.949 83.018 C 121.131 82.905,121.180 83.038,121.067 83.335 C 120.953 83.631,120.668 83.768,120.390 83.662 C 119.998 83.511,119.982 83.564,120.301 83.948 C 120.628 84.342,120.583 84.398,120.028 84.291 C 119.358 84.162,119.075 84.863,119.653 85.220 C 119.811 85.317,119.866 85.683,119.774 86.032 C 119.682 86.387,119.765 86.667,119.963 86.667 C 120.158 86.667,120.301 86.774,120.280 86.905 C 120.121 87.910,120.362 88.535,120.837 88.352 C 121.197 88.214,121.307 88.290,121.194 88.600 C 121.105 88.846,120.854 89.006,120.636 88.955 C 120.395 88.899,120.313 89.055,120.427 89.352 C 120.561 89.701,120.414 89.843,119.911 89.846 C 119.402 89.850,119.324 89.926,119.631 90.120 C 120.310 90.551,119.953 91.889,119.127 92.006 C 118.734 92.062,118.413 92.232,118.413 92.385 C 118.413 92.537,118.143 92.610,117.814 92.547 C 117.344 92.456,117.248 92.579,117.365 93.120 C 117.476 93.630,117.435 93.696,117.207 93.375 C 116.949 93.010,116.855 93.015,116.624 93.409 C 116.473 93.667,115.800 94.057,115.128 94.275 C 114.080 94.616,113.928 94.781,114.055 95.443 C 114.153 95.956,114.005 96.351,113.611 96.627 C 113.286 96.855,113.114 97.135,113.230 97.251 C 113.345 97.366,113.256 97.460,113.032 97.460 C 112.765 97.460,112.678 97.743,112.781 98.279 C 112.903 98.916,112.770 99.173,112.183 99.441 C 111.369 99.812,111.184 100.483,111.825 100.742 C 112.143 100.870,112.143 100.907,111.825 100.927 C 111.607 100.941,111.429 101.221,111.429 101.550 C 111.429 101.890,111.142 102.223,110.765 102.322 C 110.208 102.467,110.126 102.677,110.254 103.629 C 110.365 104.458,110.288 104.762,109.965 104.762 C 109.722 104.762,109.417 104.770,109.286 104.781 C 108.914 104.810,108.652 105.776,108.720 106.861 C 108.763 107.557,108.645 107.838,108.317 107.813 C 107.863 107.779,107.570 108.487,107.576 109.603 C 107.578 109.909,107.437 110.159,107.263 110.159 C 107.089 110.159,107.054 110.337,107.185 110.556 C 107.347 110.825,107.251 110.813,106.886 110.517 C 106.265 110.013,106.299 109.965,106.191 111.503 C 106.141 112.216,106.232 112.612,106.419 112.497 C 106.591 112.390,106.573 112.597,106.379 112.960 C 105.930 113.799,105.494 114.066,105.241 113.656 C 105.132 113.479,105.265 113.333,105.537 113.333 C 105.809 113.333,106.032 113.190,106.032 113.016 C 106.032 112.841,105.906 112.698,105.753 112.698 C 105.395 112.698,104.725 113.502,104.788 113.855 C 104.932 114.658,104.692 115.217,104.127 115.397 C 103.650 115.548,103.492 115.877,103.492 116.717 C 103.492 117.445,103.272 118.018,102.860 118.362 C 102.512 118.652,102.191 119.246,102.146 119.683 C 102.100 120.119,101.789 120.637,101.453 120.834 C 100.717 121.266,100.531 122.186,101.050 122.828 C 101.347 123.195,101.343 123.245,101.032 123.058 C 100.813 122.927,100.635 122.954,100.635 123.119 C 100.635 123.283,100.340 123.495,99.980 123.589 C 99.620 123.683,99.364 123.950,99.411 124.182 C 99.564 124.937,99.046 126.347,98.645 126.268 C 98.384 126.216,98.254 126.640,98.254 127.540 C 98.254 128.282,98.147 128.907,98.016 128.929 C 97.885 128.951,97.599 128.986,97.381 129.008 C 97.135 129.033,96.984 129.538,96.984 130.338 C 96.984 131.530,96.926 131.617,96.218 131.481 C 95.608 131.364,95.492 131.441,95.652 131.858 C 95.763 132.146,95.715 132.381,95.546 132.381 C 95.376 132.381,95.238 132.675,95.238 133.035 C 95.238 133.473,95.369 133.610,95.635 133.450 C 95.915 133.282,95.906 133.366,95.605 133.738 C 95.336 134.070,95.240 134.706,95.345 135.465 C 95.452 136.240,95.350 136.885,95.057 137.283 C 94.469 138.081,94.479 139.723,95.079 141.160 C 95.671 142.577,95.670 142.697,95.064 143.303 C 94.480 143.887,94.996 145.262,95.651 144.869 C 95.925 144.704,95.921 144.777,95.635 145.131 C 95.306 145.536,95.375 145.769,96.032 146.478 C 96.468 146.949,96.825 147.628,96.825 147.987 C 96.825 148.416,96.978 148.581,97.271 148.468 C 97.994 148.191,98.977 149.074,98.492 149.566 C 97.869 150.197,98.025 151.252,98.857 152.034 C 99.415 152.557,99.581 152.991,99.477 153.648 C 99.371 154.324,99.516 154.673,100.065 155.057 C 100.466 155.338,100.812 155.708,100.833 155.879 C 100.855 156.050,100.891 156.333,100.913 156.508 C 100.935 156.683,101.060 156.808,101.190 156.788 C 101.935 156.670,102.176 156.911,102.100 157.698 C 101.991 158.834,102.443 159.439,103.129 159.072 C 103.584 158.828,103.645 159.001,103.605 160.428 C 103.546 162.526,103.747 163.267,104.314 163.049 C 104.736 162.887,104.893 163.288,104.842 164.395 C 104.817 164.945,105.900 166.032,106.474 166.032 C 106.717 166.032,107.011 166.282,107.128 166.587 C 107.297 167.033,107.260 167.064,106.939 166.746 C 106.413 166.223,106.138 166.244,106.138 166.808 C 106.138 167.060,106.221 167.257,106.323 167.246 C 107.364 167.134,107.531 167.341,107.389 168.571 C 107.243 169.839,107.390 170.010,108.502 169.863 C 108.791 169.824,108.846 170.058,108.694 170.666 C 108.523 171.349,108.569 171.469,108.922 171.256 C 109.293 171.032,109.297 171.073,108.946 171.506 C 108.654 171.867,108.621 172.197,108.836 172.599 C 109.005 172.915,109.194 173.317,109.254 173.492 C 109.315 173.667,109.589 173.780,109.864 173.744 C 110.241 173.694,110.330 173.899,110.229 174.586 C 110.136 175.218,110.304 175.701,110.784 176.180 C 111.162 176.559,111.492 177.148,111.518 177.489 C 111.546 177.863,111.732 178.047,111.983 177.950 C 112.475 177.761,113.041 179.043,112.867 179.951 C 112.788 180.361,112.955 180.628,113.357 180.733 C 113.937 180.885,114.126 181.549,113.985 182.937 C 113.948 183.302,114.149 183.492,114.576 183.492 C 114.932 183.492,115.683 183.772,116.245 184.114 C 116.999 184.572,117.377 184.645,117.682 184.393 C 118.234 183.934,119.082 184.621,118.816 185.313 C 118.688 185.648,118.747 185.741,118.994 185.589 C 119.200 185.461,119.365 185.533,119.365 185.750 C 119.365 185.965,119.609 186.410,119.908 186.740 C 120.365 187.245,120.380 187.384,120.004 187.617 C 119.659 187.830,119.734 187.938,120.334 188.088 C 120.761 188.196,121.275 188.632,121.476 189.058 C 121.827 189.804,121.816 189.815,121.167 189.361 C 120.386 188.813,119.871 188.741,120.167 189.220 C 120.280 189.403,120.242 189.724,120.083 189.935 C 119.924 190.145,119.756 190.960,119.708 191.745 C 119.661 192.531,119.556 193.281,119.475 193.412 C 119.394 193.543,119.515 193.653,119.743 193.656 C 120.057 193.659,120.047 193.731,119.703 193.949 C 119.325 194.188,119.318 194.323,119.662 194.738 C 120.217 195.406,120.659 195.374,120.436 194.683 C 120.291 194.230,120.318 194.212,120.584 194.588 C 120.764 194.842,120.839 195.164,120.752 195.305 C 120.550 195.632,120.920 196.823,121.210 196.781 C 121.919 196.680,122.134 196.937,122.111 197.857 C 122.091 198.701,122.205 198.885,122.739 198.869 C 123.321 198.851,123.400 199.058,123.461 200.755 C 123.539 202.906,123.683 203.291,124.318 203.047 C 124.645 202.922,124.762 203.162,124.762 203.956 C 124.762 204.968,125.415 206.032,126.036 206.032 C 126.188 206.032,126.258 206.317,126.190 206.667 C 126.123 207.016,126.203 207.302,126.367 207.302 C 126.532 207.302,126.667 207.153,126.667 206.972 C 126.667 206.767,126.819 206.784,127.068 207.016 C 127.302 207.235,127.421 207.894,127.353 208.602 C 127.251 209.677,127.328 209.836,128.042 210.015 C 128.561 210.145,128.786 210.376,128.675 210.664 C 128.581 210.910,128.679 211.111,128.894 211.111 C 129.169 211.111,129.188 211.228,128.956 211.508 C 128.468 212.098,128.882 213.709,129.569 213.888 C 129.893 213.973,130.180 214.204,130.207 214.402 C 130.234 214.600,130.289 214.905,130.329 215.079 C 130.370 215.254,130.419 215.575,130.440 215.794 C 130.460 216.012,130.627 216.190,130.812 216.190 C 130.997 216.190,131.046 216.012,130.920 215.794 C 130.788 215.563,130.813 215.508,130.981 215.661 C 131.140 215.807,131.272 216.021,131.275 216.138 C 131.277 216.254,131.393 216.528,131.532 216.746 C 131.670 216.964,131.698 217.143,131.594 217.143 C 131.489 217.143,131.587 217.339,131.811 217.579 C 132.035 217.819,132.384 217.952,132.585 217.875 C 132.787 217.798,133.060 217.909,133.192 218.123 C 133.343 218.367,133.299 218.429,133.074 218.290 C 132.549 217.965,132.672 220.311,133.227 221.201 C 133.475 221.599,133.802 221.849,133.953 221.756 C 134.103 221.663,134.152 221.870,134.062 222.217 C 133.971 222.564,134.007 223.100,134.142 223.408 C 134.276 223.716,134.360 224.086,134.328 224.230 C 134.296 224.374,134.416 224.401,134.595 224.291 C 134.774 224.180,134.921 224.241,134.921 224.426 C 134.921 224.611,135.152 224.762,135.436 224.762 C 135.831 224.762,135.868 224.861,135.597 225.188 C 135.178 225.693,135.437 226.032,136.243 226.032 C 136.563 226.032,136.843 226.246,136.865 226.508 C 136.928 227.268,136.977 227.434,137.276 227.906 C 137.470 228.213,137.444 228.281,137.192 228.126 C 136.990 228.001,136.825 228.067,136.825 228.272 C 136.825 228.489,137.091 228.576,137.461 228.479 C 137.810 228.388,138.022 228.433,137.932 228.579 C 137.841 228.725,137.902 228.928,138.067 229.030 C 138.232 229.132,138.297 229.847,138.212 230.618 C 138.082 231.800,138.161 232.076,138.712 232.371 C 139.071 232.563,139.365 233.002,139.365 233.346 C 139.365 233.965,139.885 233.970,197.964 233.956 L 256.562 233.942 257.329 233.115 C 257.750 232.660,258.095 231.956,258.095 231.551 C 258.095 231.057,258.239 230.869,258.530 230.980 C 258.796 231.082,259.040 230.863,259.160 230.415 C 259.437 229.382,259.412 229.140,259.051 229.363 C 258.871 229.474,258.818 229.347,258.926 229.064 C 259.030 228.793,259.315 228.571,259.558 228.571 C 259.801 228.571,260.000 228.420,260.000 228.235 C 260.000 228.050,260.123 227.975,260.273 228.068 C 260.423 228.160,260.507 227.881,260.459 227.447 C 260.375 226.680,261.015 225.714,261.608 225.714 C 261.769 225.714,261.878 225.137,261.850 224.432 C 261.811 223.441,261.956 223.040,262.487 222.668 C 262.979 222.323,263.176 221.853,263.179 221.014 C 263.183 220.155,263.264 219.968,263.484 220.315 C 263.722 220.692,263.863 220.708,264.177 220.394 C 264.394 220.177,264.454 220.000,264.310 220.000 C 264.167 220.000,264.245 219.758,264.485 219.463 C 264.861 219.000,264.855 218.964,264.444 219.206 C 264.034 219.448,264.028 219.413,264.404 218.950 C 264.644 218.654,264.715 218.411,264.563 218.408 C 264.410 218.405,264.643 218.224,265.079 218.004 C 265.654 217.715,265.902 217.300,265.978 216.501 C 266.035 215.894,266.288 215.281,266.540 215.139 C 266.792 214.998,266.915 214.748,266.813 214.584 C 266.712 214.420,266.771 214.286,266.944 214.286 C 267.118 214.286,267.196 213.935,267.118 213.505 C 267.018 212.956,267.164 212.625,267.608 212.387 C 268.405 211.960,268.907 210.225,268.482 209.365 C 268.309 209.016,268.281 208.836,268.420 208.965 C 268.558 209.095,268.899 209.030,269.177 208.822 C 269.600 208.505,269.618 208.516,269.286 208.888 C 268.760 209.477,268.784 209.841,269.347 209.841 C 269.659 209.841,269.836 209.411,269.902 208.492 C 269.977 207.458,270.125 207.152,270.534 207.183 C 270.922 207.213,271.128 206.871,271.287 205.932 C 271.407 205.222,271.707 204.438,271.954 204.191 C 272.218 203.928,272.319 203.478,272.199 203.101 C 272.050 202.631,272.104 202.527,272.401 202.711 C 272.684 202.886,272.749 202.811,272.616 202.464 C 272.489 202.136,272.643 201.910,273.070 201.799 C 273.424 201.706,273.620 201.478,273.505 201.291 C 273.390 201.105,273.456 200.952,273.652 200.952 C 273.848 200.952,273.983 200.702,273.952 200.397 C 273.842 199.318,273.974 199.021,274.524 199.113 C 274.969 199.188,275.099 198.938,275.177 197.857 C 275.256 196.766,275.393 196.508,275.891 196.508 C 276.404 196.508,276.508 196.283,276.508 195.176 C 276.508 194.165,276.712 193.631,277.358 192.957 L 278.207 192.071 277.501 190.559 C 276.914 189.302,276.588 186.009,277.101 186.520 C 277.326 186.744,278.095 185.755,278.095 185.242 C 278.095 184.912,278.239 184.811,278.492 184.963 C 278.765 185.127,278.754 185.035,278.456 184.668 C 277.960 184.055,278.637 183.584,279.524 183.924 C 279.786 184.025,280.000 183.969,280.000 183.800 C 280.000 183.630,280.211 183.492,280.469 183.492 C 281.094 183.492,282.021 182.041,281.727 181.522 C 281.540 181.192,281.578 181.189,281.922 181.508 C 282.444 181.992,283.175 182.028,283.175 181.569 C 283.175 181.384,283.017 181.329,282.825 181.448 C 282.575 181.603,282.577 181.476,282.830 181.003 C 283.041 180.609,283.374 180.414,283.654 180.521 C 284.145 180.710,284.793 179.509,284.548 178.864 C 284.477 178.675,284.781 178.249,285.225 177.915 C 285.986 177.344,286.397 176.562,285.714 176.984 C 285.540 177.092,285.397 177.029,285.397 176.844 C 285.397 176.659,285.540 176.508,285.714 176.508 C 285.889 176.508,286.032 176.222,286.032 175.873 C 286.032 175.524,286.152 175.238,286.298 175.238 C 286.615 175.238,287.302 173.816,287.302 173.160 C 287.302 172.906,287.587 172.413,287.937 172.063 C 288.286 171.714,288.571 171.071,288.571 170.635 C 288.571 170.067,288.743 169.841,289.174 169.841 C 289.664 169.841,289.766 169.628,289.722 168.695 C 289.678 167.755,289.804 167.497,290.422 167.262 C 290.906 167.078,291.111 166.806,290.995 166.504 C 290.895 166.244,290.928 166.032,291.068 166.032 C 291.208 166.032,291.323 165.583,291.323 165.034 C 291.323 164.474,291.552 163.869,291.847 163.654 C 292.135 163.443,292.278 163.178,292.164 163.064 C 292.051 162.950,292.120 162.857,292.318 162.857 C 292.516 162.857,292.596 162.643,292.496 162.381 C 292.381 162.082,292.499 161.905,292.812 161.905 C 293.490 161.905,294.025 160.814,293.796 159.900 C 293.638 159.271,293.725 159.156,294.341 159.179 C 294.941 159.201,295.084 159.032,295.122 158.254 C 295.149 157.730,295.185 157.123,295.204 156.905 C 295.223 156.687,295.541 156.205,295.910 155.836 C 296.453 155.293,296.499 155.110,296.149 154.888 C 295.805 154.671,295.801 154.612,296.130 154.608 C 296.358 154.605,296.470 154.481,296.378 154.332 C 296.161 153.981,296.882 152.063,297.231 152.063 C 297.378 152.063,297.409 151.921,297.302 151.746 C 297.194 151.571,297.257 151.429,297.442 151.429 C 297.893 151.429,297.866 151.843,297.381 152.357 C 297.061 152.697,297.076 152.750,297.460 152.634 C 297.722 152.555,297.982 152.180,298.038 151.801 C 298.094 151.421,298.344 151.111,298.594 151.111 C 298.843 151.111,299.069 150.861,299.096 150.556 C 299.123 150.250,299.178 149.857,299.218 149.683 C 299.259 149.508,299.308 149.100,299.328 148.776 C 299.352 148.395,299.530 148.249,299.831 148.365 C 300.087 148.463,300.382 148.407,300.485 148.240 C 300.588 148.073,300.467 147.937,300.216 147.937 C 299.966 147.937,299.592 147.734,299.386 147.486 C 298.959 146.971,299.496 146.945,300.292 147.442 C 300.633 147.655,300.693 147.593,300.537 147.188 C 300.410 146.857,300.581 146.403,300.983 146.001 C 302.263 144.722,302.121 143.417,300.629 142.741 C 299.069 142.035,298.730 141.294,298.730 138.590 C 298.730 136.462,298.953 136.068,300.359 135.715 C 301.513 135.426,301.881 134.455,301.627 132.373 C 301.605 132.194,301.194 131.891,300.714 131.700 C 300.223 131.505,300.015 131.288,300.238 131.206 C 300.456 131.125,300.633 130.820,300.630 130.529 C 300.626 130.095,300.574 130.081,300.341 130.448 C 300.123 130.793,300.031 130.720,299.942 130.131 C 299.877 129.702,299.642 129.404,299.407 129.454 C 299.177 129.503,299.050 129.361,299.125 129.137 C 299.200 128.913,299.035 128.540,298.758 128.307 C 298.306 127.929,298.314 127.904,298.836 128.070 C 299.218 128.191,299.372 128.118,299.284 127.857 C 299.210 127.639,298.850 127.477,298.484 127.497 C 297.927 127.527,297.838 127.382,297.937 126.598 C 298.103 125.284,297.823 124.647,297.278 125.099 C 296.942 125.378,296.813 125.262,296.671 124.552 C 296.571 124.056,296.363 123.257,296.208 122.776 C 296.039 122.249,296.042 121.972,296.217 122.080 C 296.892 122.497,296.441 121.558,295.748 121.104 C 295.212 120.753,295.033 120.399,295.140 119.906 C 295.264 119.341,295.228 119.298,294.953 119.683 C 294.733 119.991,294.611 120.022,294.608 119.772 C 294.605 119.559,294.404 119.461,294.162 119.554 C 293.812 119.689,293.749 119.414,293.858 118.234 C 293.985 116.860,293.945 116.757,293.347 116.914 C 292.921 117.025,292.698 116.930,292.698 116.637 C 292.698 115.877,292.655 115.727,292.315 115.317 C 292.083 115.038,292.098 114.921,292.365 114.921 C 292.616 114.921,292.583 114.760,292.268 114.445 C 292.007 114.184,291.604 114.018,291.373 114.076 C 291.142 114.134,291.060 114.122,291.190 114.048 C 291.321 113.975,291.429 113.705,291.429 113.447 C 291.429 113.189,291.310 113.052,291.164 113.142 C 291.019 113.232,290.899 113.104,290.899 112.857 C 290.899 112.611,291.024 112.486,291.177 112.580 C 291.803 112.967,290.977 110.908,290.295 110.382 C 289.873 110.057,289.631 109.613,289.732 109.350 C 289.844 109.060,289.712 108.889,289.376 108.889 C 289.083 108.889,288.639 108.685,288.390 108.435 C 287.870 107.916,287.781 107.486,288.254 107.778 C 288.791 108.110,288.605 107.558,288.016 107.073 C 287.487 106.637,287.487 106.623,288.016 106.790 C 288.321 106.886,288.571 106.835,288.571 106.678 C 288.571 106.521,288.286 106.301,287.937 106.190 C 287.587 106.080,287.302 105.784,287.302 105.534 C 287.302 104.782,287.228 104.621,286.698 104.206 C 286.242 103.848,286.247 103.828,286.746 104.001 C 287.410 104.233,287.446 103.868,286.836 103.063 C 286.592 102.740,286.251 102.563,286.080 102.668 C 285.893 102.784,285.827 102.495,285.913 101.946 C 286.017 101.285,285.831 100.763,285.243 100.064 C 284.795 99.531,284.468 98.906,284.516 98.675 C 284.569 98.419,284.323 98.264,283.889 98.279 C 283.147 98.305,283.049 98.056,283.130 96.349 C 283.165 95.622,283.102 95.509,282.862 95.873 C 282.653 96.192,282.548 96.218,282.545 95.952 C 282.542 95.734,282.363 95.591,282.146 95.635 C 281.901 95.684,281.785 95.416,281.838 94.921 C 281.917 94.178,280.533 92.425,279.934 92.508 C 279.811 92.526,279.479 92.254,279.196 91.905 C 278.914 91.556,278.789 91.473,278.917 91.721 C 279.087 92.046,279.011 92.117,278.644 91.977 C 278.365 91.869,278.083 91.942,278.017 92.138 C 277.740 92.970,276.889 92.073,276.889 90.949 C 276.889 90.178,276.640 89.517,276.143 88.971 C 275.733 88.520,275.611 88.273,275.873 88.422 C 276.249 88.637,276.278 88.597,276.009 88.236 C 275.514 87.571,275.517 86.296,276.015 85.537 C 276.795 84.346,276.599 81.662,275.688 81.065 C 275.108 80.684,274.957 80.377,275.107 79.879 C 275.272 79.331,275.232 79.280,274.893 79.603 C 274.476 80.000,273.678 80.184,274.069 79.793 C 274.183 79.680,274.028 79.383,273.725 79.135 C 273.422 78.886,273.354 78.774,273.572 78.885 C 273.834 79.017,273.932 78.889,273.858 78.511 C 273.639 77.388,273.275 76.868,272.827 77.040 C 272.499 77.166,272.433 77.058,272.590 76.650 C 272.755 76.220,272.699 76.151,272.356 76.358 C 272.004 76.570,271.979 76.529,272.241 76.172 C 272.708 75.535,272.560 74.253,271.983 73.929 C 271.718 73.781,271.405 73.016,271.287 72.228 C 271.093 70.931,270.237 69.869,269.766 70.340 C 269.679 70.427,269.662 70.100,269.729 69.614 C 269.832 68.861,269.806 68.824,269.551 69.365 C 269.267 69.966,269.250 69.960,269.229 69.252 C 269.215 68.789,269.055 68.562,268.810 68.656 C 268.519 68.768,268.443 68.427,268.527 67.380 C 268.592 66.574,268.516 66.029,268.353 66.129 C 267.764 66.493,267.323 65.807,267.183 64.310 C 267.043 62.810,266.536 62.069,265.914 62.454 C 265.737 62.563,265.692 62.420,265.809 62.116 C 265.921 61.825,265.873 61.587,265.704 61.587 C 265.535 61.587,265.397 61.436,265.397 61.251 C 265.397 61.066,265.550 61.010,265.738 61.126 C 265.925 61.241,265.891 61.036,265.661 60.668 C 265.432 60.301,265.136 60.000,265.003 60.000 C 264.870 60.000,264.762 59.658,264.762 59.240 C 264.762 58.485,263.820 57.763,263.798 58.502 C 263.792 58.715,263.594 58.541,263.359 58.116 C 263.124 57.691,262.997 56.926,263.077 56.415 C 263.183 55.747,263.107 55.525,262.809 55.624 C 262.149 55.845,261.703 55.202,261.845 54.234 C 262.047 52.855,261.680 51.890,260.801 51.490 C 260.316 51.269,260.000 51.247,260.000 51.435 C 260.000 51.606,259.865 51.746,259.701 51.746 C 259.536 51.746,259.458 51.454,259.527 51.097 C 259.690 50.249,259.384 49.475,258.983 49.723 C 258.780 49.848,258.767 49.704,258.945 49.324 C 259.436 48.275,259.257 47.467,258.510 47.361 C 258.018 47.291,257.870 47.112,258.008 46.754 C 258.151 46.380,258.083 46.313,257.752 46.502 C 257.407 46.699,257.386 46.668,257.662 46.369 C 257.860 46.154,257.950 45.705,257.863 45.370 C 257.645 44.539,139.365 44.396,139.365 45.227 M261.450 54.211 C 261.162 54.499,260.277 53.973,260.484 53.638 C 260.627 53.407,260.834 53.421,261.147 53.681 C 261.398 53.889,261.534 54.127,261.450 54.211 M251.562 54.837 C 251.510 55.722,251.662 56.166,252.149 56.550 C 252.554 56.869,252.826 57.480,252.857 58.137 C 252.896 58.956,253.051 59.210,253.518 59.221 C 253.859 59.229,254.085 59.424,254.032 59.664 C 253.809 60.675,254.339 61.905,254.999 61.905 C 255.363 61.905,255.567 61.999,255.452 62.114 C 255.338 62.229,255.421 62.542,255.638 62.810 C 255.958 63.205,255.951 63.248,255.603 63.039 C 255.254 62.828,255.243 62.909,255.545 63.472 C 255.748 63.852,256.119 64.241,256.370 64.338 C 256.660 64.449,256.825 64.971,256.825 65.778 C 256.825 66.777,256.959 67.079,257.460 67.210 C 258.026 67.358,258.322 68.408,258.133 69.603 C 258.112 69.734,258.347 69.841,258.654 69.841 C 258.961 69.841,259.391 70.127,259.609 70.476 C 259.844 70.853,259.875 71.111,259.685 71.111 C 259.160 71.111,259.321 71.714,260.000 72.296 C 260.349 72.595,260.635 73.102,260.635 73.423 C 260.635 73.743,260.776 73.918,260.949 73.812 C 261.134 73.697,261.178 73.838,261.056 74.156 C 260.934 74.474,261.046 74.839,261.327 75.046 C 261.590 75.239,261.903 75.919,262.023 76.557 C 262.220 77.611,262.910 78.297,263.441 77.967 C 263.557 77.896,263.651 78.431,263.651 79.157 C 263.651 80.282,263.755 80.491,264.363 80.577 C 264.951 80.661,265.062 80.855,264.998 81.687 C 264.934 82.522,265.083 82.779,265.873 83.190 C 266.397 83.463,266.869 83.881,266.923 84.119 C 267.003 84.475,266.932 84.479,266.526 84.142 C 265.778 83.522,265.867 84.784,266.639 85.766 C 266.974 86.191,267.295 86.960,267.354 87.476 C 267.435 88.193,267.624 88.415,268.158 88.422 C 268.541 88.427,268.970 88.558,269.110 88.711 C 269.252 88.867,269.189 88.890,268.967 88.762 C 268.684 88.599,268.609 88.745,268.706 89.266 C 268.780 89.670,268.852 90.265,268.865 90.590 C 268.881 90.988,269.049 91.118,269.382 90.990 C 269.664 90.882,269.792 90.935,269.680 91.115 C 269.574 91.287,269.638 91.429,269.823 91.429 C 270.007 91.429,270.159 91.636,270.159 91.889 C 270.159 92.142,270.409 92.510,270.714 92.707 C 271.243 93.047,271.243 93.056,270.714 92.891 C 269.961 92.657,270.007 93.230,270.775 93.641 C 271.180 93.857,271.424 94.377,271.489 95.160 C 271.543 95.814,271.754 96.349,271.958 96.349 C 272.554 96.349,272.725 96.675,272.812 97.979 C 272.886 99.076,272.984 99.205,273.731 99.195 C 274.290 99.188,274.474 99.297,274.286 99.523 C 274.131 99.710,274.057 100.144,274.121 100.487 C 274.185 100.830,274.248 101.290,274.261 101.508 C 274.275 101.726,274.576 101.905,274.931 101.905 C 275.285 101.905,275.657 102.118,275.758 102.379 C 275.858 102.640,276.090 102.761,276.273 102.648 C 276.463 102.530,276.512 102.593,276.388 102.794 C 276.268 102.988,275.971 103.070,275.727 102.977 C 275.402 102.852,275.333 102.993,275.468 103.509 C 275.569 103.896,275.916 104.281,276.239 104.365 C 276.683 104.481,276.825 104.819,276.825 105.759 C 276.825 106.770,276.964 107.053,277.572 107.284 C 278.186 107.517,278.305 107.767,278.243 108.694 C 278.172 109.764,278.214 109.815,279.089 109.713 C 279.839 109.626,279.942 109.687,279.648 110.041 C 279.365 110.382,279.415 110.484,279.882 110.513 C 280.414 110.546,280.418 110.565,279.921 110.695 C 279.180 110.888,279.217 111.625,280.000 112.296 C 280.349 112.595,280.635 113.093,280.635 113.404 C 280.635 113.714,280.764 113.968,280.923 113.968 C 281.081 113.968,281.141 114.234,281.056 114.559 C 280.967 114.900,281.097 115.226,281.363 115.328 C 281.617 115.425,281.924 116.032,282.044 116.677 C 282.176 117.379,282.478 117.904,282.799 117.988 C 283.093 118.065,283.512 118.506,283.730 118.968 C 284.197 119.958,284.253 120.687,283.810 120.000 C 283.596 119.670,283.500 119.648,283.497 119.928 C 283.494 120.151,283.853 120.470,284.293 120.638 C 284.935 120.882,285.056 121.093,284.903 121.702 C 284.753 122.303,284.917 122.607,285.689 123.157 C 286.486 123.724,286.608 123.961,286.350 124.443 C 285.981 125.133,286.208 125.909,286.850 126.156 C 287.098 126.251,287.302 126.548,287.302 126.815 C 287.302 127.083,287.444 127.302,287.619 127.302 C 287.794 127.302,287.937 127.453,287.937 127.638 C 287.937 127.823,287.794 127.886,287.619 127.778 C 287.444 127.670,287.302 127.723,287.302 127.896 C 287.302 128.070,287.587 128.302,287.937 128.413 C 288.286 128.524,288.589 128.747,288.611 128.910 C 288.633 129.073,288.687 129.349,288.730 129.524 C 288.774 129.698,288.827 130.135,288.849 130.495 C 288.871 130.854,289.032 131.060,289.206 130.952 C 289.381 130.844,289.524 130.907,289.524 131.092 C 289.524 131.277,289.718 131.429,289.956 131.429 C 290.247 131.429,290.338 131.690,290.235 132.230 C 290.124 132.810,290.309 133.241,290.910 133.798 C 291.575 134.415,291.706 134.771,291.577 135.616 C 291.451 136.440,291.481 136.530,291.718 136.032 C 291.962 135.518,292.023 135.498,292.041 135.926 C 292.053 136.217,292.194 136.503,292.355 136.561 C 292.515 136.619,292.703 137.238,292.773 137.937 C 292.873 138.932,293.020 139.185,293.452 139.109 C 293.916 139.027,293.894 139.122,293.314 139.702 C 292.758 140.258,292.708 140.446,293.058 140.668 C 293.365 140.862,293.238 140.944,292.625 140.948 C 291.623 140.953,291.361 141.616,291.538 143.697 C 291.642 144.908,291.593 145.007,290.923 144.933 C 290.243 144.858,290.202 144.953,290.294 146.384 C 290.383 147.775,290.340 147.886,289.819 147.607 C 289.170 147.260,288.689 147.748,288.831 148.612 C 288.877 148.896,288.695 149.213,288.426 149.316 C 288.157 149.419,287.934 149.830,287.932 150.228 C 287.928 150.812,287.867 150.860,287.619 150.476 C 287.379 150.105,287.310 150.193,287.306 150.873 C 287.303 151.405,287.129 151.746,286.860 151.746 C 286.329 151.746,286.063 152.746,286.162 154.365 C 286.227 155.423,286.055 155.690,285.362 155.608 C 285.255 155.595,285.171 155.900,285.175 156.285 C 285.185 157.272,284.503 158.804,284.150 158.586 C 283.988 158.486,283.764 158.691,283.652 159.043 C 283.541 159.395,283.254 159.683,283.016 159.683 C 282.589 159.683,282.161 160.580,282.069 161.668 C 282.043 161.974,281.765 162.413,281.451 162.643 C 281.086 162.909,280.843 163.569,280.777 164.467 C 280.721 165.240,280.666 165.986,280.655 166.125 C 280.644 166.264,280.391 166.335,280.092 166.284 C 279.739 166.223,279.536 166.412,279.512 166.825 C 279.395 168.772,279.351 168.889,278.730 168.889 C 278.336 168.889,278.095 169.101,278.095 169.447 C 278.095 169.755,277.810 170.184,277.460 170.403 C 276.992 170.695,276.825 171.143,276.825 172.109 C 276.825 173.066,276.630 173.601,276.101 174.091 C 275.549 174.603,275.385 175.083,275.415 176.108 C 275.448 177.235,275.381 177.393,275.004 177.081 C 274.499 176.661,273.942 177.228,274.006 178.095 C 274.077 179.055,273.955 179.295,273.306 179.464 C 272.875 179.577,272.683 179.840,272.757 180.216 C 272.825 180.557,272.609 180.927,272.229 181.119 C 271.733 181.370,271.566 181.815,271.492 183.077 C 271.432 184.116,271.208 184.864,270.876 185.133 C 270.502 185.436,270.422 185.443,270.593 185.159 C 270.724 184.940,270.682 184.762,270.499 184.762 C 270.316 184.762,270.187 185.012,270.213 185.317 C 270.323 186.635,270.141 187.645,269.827 187.452 C 269.429 187.206,268.510 187.898,268.741 188.271 C 268.830 188.415,268.604 188.812,268.238 189.153 C 267.392 189.941,267.251 190.803,267.853 191.493 C 268.285 191.988,268.256 192.022,267.510 191.886 C 266.523 191.708,265.637 192.888,266.396 193.369 C 266.713 193.570,266.721 193.642,266.429 193.646 C 266.188 193.649,266.032 194.085,266.032 194.752 C 266.032 195.649,265.934 195.815,265.503 195.650 C 265.164 195.520,265.052 195.572,265.191 195.797 C 265.310 195.989,265.262 196.236,265.085 196.346 C 264.907 196.456,264.762 197.054,264.762 197.677 C 264.762 198.587,264.679 198.739,264.336 198.454 C 263.831 198.035,263.492 198.294,263.492 199.101 C 263.492 199.421,263.286 199.683,263.035 199.683 C 262.486 199.683,262.368 199.867,262.121 201.111 L 261.931 202.063 262.395 201.032 C 262.939 199.822,263.297 199.637,262.857 200.794 C 262.691 201.230,262.604 201.587,262.664 201.587 C 262.724 201.587,262.282 202.108,261.681 202.745 C 260.888 203.586,260.699 203.970,260.989 204.149 C 261.275 204.326,261.293 204.515,261.052 204.817 C 260.867 205.049,260.757 205.489,260.807 205.795 C 260.856 206.102,260.779 206.280,260.636 206.191 C 260.049 205.829,259.503 206.414,259.519 207.389 C 259.540 208.662,259.163 209.229,258.469 208.969 C 258.030 208.805,258.004 208.853,258.321 209.244 C 258.639 209.636,258.539 209.817,257.750 210.283 C 256.794 210.848,256.570 211.926,257.299 212.447 C 257.500 212.591,257.475 212.811,257.227 213.059 C 256.940 213.345,256.932 213.556,257.195 213.873 C 257.477 214.212,257.431 214.255,256.974 214.079 C 256.512 213.902,256.441 213.972,256.619 214.434 C 256.797 214.900,256.755 214.940,256.399 214.644 C 255.817 214.161,255.369 214.761,255.422 215.952 C 255.457 216.748,255.221 216.980,254.500 216.855 C 254.356 216.830,254.329 216.956,254.440 217.135 C 254.550 217.314,254.489 217.460,254.304 217.460 C 254.120 217.460,253.968 217.612,253.968 217.797 C 253.968 217.981,254.147 218.031,254.365 217.908 C 254.583 217.784,254.295 218.178,253.725 218.783 C 253.154 219.388,252.784 219.979,252.901 220.097 C 253.019 220.215,252.738 220.661,252.276 221.089 C 251.558 221.755,251.451 222.086,251.530 223.394 L 251.624 224.921 199.066 224.841 C 170.159 224.798,146.401 224.762,146.270 224.762 C 146.139 224.762,146.032 224.476,146.032 224.127 C 146.032 223.704,145.820 223.492,145.397 223.492 C 144.900 223.492,144.762 223.280,144.762 222.521 C 144.762 221.962,144.629 221.632,144.448 221.744 C 144.268 221.855,144.215 221.728,144.322 221.448 C 144.546 220.864,143.536 220.367,143.207 220.899 C 143.086 221.096,143.046 220.322,143.119 219.180 C 143.240 217.275,143.195 217.089,142.578 216.927 C 142.058 216.791,141.905 216.505,141.905 215.667 C 141.905 214.833,141.740 214.522,141.192 214.319 C 140.800 214.174,140.479 213.786,140.478 213.456 C 140.477 213.028,140.283 212.884,139.801 212.950 C 138.955 213.066,138.680 212.394,139.047 211.112 C 139.282 210.293,139.214 210.007,138.645 209.439 C 138.268 209.062,137.943 208.534,137.923 208.265 C 137.903 207.997,137.862 207.466,137.832 207.085 C 137.802 206.702,137.493 206.302,137.143 206.190 C 136.706 206.052,136.508 205.710,136.508 205.097 C 136.508 204.173,135.798 203.304,135.297 203.615 C 135.139 203.712,135.048 203.443,135.095 203.017 C 135.142 202.590,135.086 202.254,134.971 202.269 C 134.284 202.361,133.968 202.147,133.968 201.587 C 133.968 201.238,133.820 200.952,133.640 200.952 C 133.419 200.952,133.425 200.740,133.657 200.305 C 134.065 199.544,133.819 198.545,133.163 198.293 C 132.907 198.195,132.696 197.718,132.694 197.232 C 132.687 195.952,132.227 195.505,130.872 195.462 C 130.582 195.453,130.604 195.306,130.951 194.923 C 131.379 194.449,131.347 194.320,130.634 193.650 C 130.198 193.241,129.841 192.575,129.841 192.171 C 129.841 191.602,129.683 191.453,129.142 191.512 C 128.492 191.582,128.441 191.453,128.428 189.683 C 128.414 188.004,128.335 187.767,127.756 187.684 C 127.224 187.608,127.124 187.412,127.234 186.664 C 127.367 185.760,126.763 184.762,126.084 184.762 C 125.913 184.762,125.848 184.476,125.940 184.127 C 126.033 183.772,125.950 183.492,125.751 183.492 C 125.556 183.492,125.386 183.671,125.372 183.889 C 125.352 184.206,125.315 184.206,125.187 183.889 C 125.099 183.671,124.788 183.490,124.497 183.487 C 124.183 183.484,124.102 183.388,124.299 183.249 C 124.960 182.783,124.790 181.175,123.991 180.336 C 123.497 179.818,123.181 179.065,123.117 178.254 C 123.033 177.202,122.902 176.988,122.353 177.004 C 121.782 177.021,121.694 176.845,121.718 175.736 C 121.736 174.923,121.600 174.433,121.349 174.407 C 121.131 174.384,120.881 174.329,120.794 174.286 C 120.706 174.242,120.456 174.188,120.238 174.167 C 120.020 174.145,119.829 173.984,119.815 173.810 C 119.800 173.635,119.617 173.079,119.409 172.575 C 119.200 172.071,119.100 171.588,119.186 171.502 C 119.272 171.415,119.191 171.061,119.005 170.714 C 118.763 170.262,118.765 170.143,119.012 170.295 C 119.251 170.443,119.270 170.284,119.074 169.778 C 118.918 169.376,118.635 169.083,118.443 169.127 C 118.252 169.171,118.093 168.956,118.090 168.651 C 118.086 168.176,118.041 168.164,117.778 168.571 C 117.609 168.833,117.468 168.898,117.465 168.714 C 117.463 168.531,117.598 168.243,117.767 168.074 C 118.265 167.576,117.762 166.357,116.977 166.160 C 116.416 166.019,116.273 165.788,116.345 165.136 C 116.407 164.568,116.184 164.058,115.661 163.574 C 115.234 163.178,114.968 162.720,115.070 162.555 C 115.172 162.390,114.966 162.311,114.612 162.379 C 113.944 162.508,113.927 162.450,113.841 159.841 C 113.803 158.692,113.404 158.000,112.893 158.196 C 112.633 158.296,112.557 157.995,112.647 157.222 C 112.737 156.455,112.667 156.173,112.424 156.322 C 112.193 156.465,112.143 156.354,112.278 156.001 C 112.455 155.541,112.348 155.494,111.560 155.689 C 110.823 155.871,110.714 155.837,111.024 155.522 C 111.332 155.209,111.332 155.025,111.024 154.645 C 110.704 154.250,110.720 154.207,111.111 154.407 C 111.373 154.541,111.194 154.342,110.714 153.965 C 110.215 153.573,109.841 152.969,109.841 152.552 C 109.841 152.151,109.541 151.624,109.173 151.380 C 108.657 151.037,108.495 150.578,108.459 149.361 C 108.421 148.078,108.299 147.764,107.800 147.668 C 107.227 147.558,107.222 147.585,107.721 148.084 C 108.014 148.377,108.254 148.709,108.254 148.821 C 108.254 148.933,108.007 148.778,107.706 148.477 C 107.362 148.133,107.155 147.426,107.150 146.583 C 107.144 145.498,107.005 145.178,106.431 144.926 C 105.925 144.704,105.774 144.439,105.909 144.013 C 106.025 143.647,105.974 143.491,105.777 143.612 C 105.025 144.077,104.542 143.465,104.668 142.207 C 104.786 141.033,104.632 140.806,103.783 140.897 C 103.681 140.908,103.598 140.713,103.598 140.464 C 103.598 140.122,103.702 140.097,104.021 140.361 C 104.334 140.621,104.444 140.612,104.444 140.327 C 104.444 140.114,104.159 139.866,103.810 139.775 C 102.991 139.560,102.998 138.890,103.826 138.310 C 104.492 137.844,104.556 136.818,103.979 135.873 C 103.720 135.450,103.754 135.450,104.284 135.873 C 104.825 136.305,104.861 136.298,104.673 135.794 C 104.555 135.480,104.613 135.238,104.806 135.238 C 104.994 135.238,105.062 135.016,104.958 134.745 C 104.854 134.474,104.894 134.330,105.047 134.424 C 105.432 134.663,106.133 133.754,105.880 133.345 C 105.767 133.162,105.906 132.923,106.189 132.814 C 106.472 132.705,106.631 132.428,106.542 132.197 C 106.434 131.916,106.551 131.843,106.897 131.976 C 107.265 132.117,107.360 132.038,107.230 131.699 C 107.124 131.425,107.307 131.062,107.663 130.840 C 108.002 130.628,108.199 130.327,108.102 130.170 C 108.005 130.013,108.071 129.795,108.249 129.686 C 108.824 129.330,108.625 128.485,108.016 128.697 C 107.487 128.881,107.487 128.870,108.016 128.458 C 108.321 128.220,108.571 127.867,108.571 127.675 C 108.571 127.482,108.857 127.171,109.206 126.984 C 109.883 126.622,110.045 125.728,109.528 125.210 C 109.321 125.004,109.446 124.879,109.892 124.845 C 110.266 124.817,110.710 124.655,110.880 124.485 C 111.298 124.067,111.510 122.135,111.110 122.381 C 110.937 122.489,110.882 122.361,110.986 122.089 C 111.089 121.823,111.474 121.637,111.843 121.676 C 112.289 121.723,112.557 121.536,112.643 121.119 C 112.714 120.774,113.003 120.324,113.284 120.118 C 113.637 119.860,113.798 119.242,113.803 118.126 C 113.809 116.564,113.992 116.311,115.000 116.470 C 115.131 116.491,115.238 116.079,115.238 115.556 C 115.238 115.032,115.095 114.603,114.921 114.603 C 114.746 114.603,114.603 114.460,114.603 114.286 C 114.603 114.111,114.710 113.985,114.841 114.006 C 114.972 114.027,115.187 114.009,115.317 113.966 C 115.448 113.924,115.734 113.871,115.952 113.849 C 116.343 113.810,116.389 113.676,116.468 112.351 C 116.491 111.968,116.785 111.614,117.161 111.516 C 117.548 111.415,117.746 111.168,117.647 110.911 C 117.555 110.672,117.619 110.476,117.788 110.476 C 117.957 110.476,118.095 110.320,118.095 110.128 C 118.095 109.937,118.392 109.364,118.755 108.855 C 119.237 108.177,119.358 107.674,119.205 106.980 C 119.069 106.361,119.122 106.032,119.359 106.032 C 119.563 106.032,119.617 105.860,119.482 105.635 C 119.291 105.318,119.342 105.318,119.730 105.632 C 120.347 106.131,120.635 105.846,120.635 104.735 C 120.635 103.627,120.942 102.813,121.280 103.022 C 121.424 103.111,121.637 102.882,121.755 102.513 C 121.872 102.144,122.235 101.575,122.562 101.248 C 122.953 100.857,123.141 100.249,123.112 99.472 C 123.087 98.822,123.198 98.244,123.359 98.187 C 124.216 97.886,124.528 97.420,124.564 96.386 C 124.593 95.536,124.742 95.239,125.140 95.239 C 125.435 95.238,125.765 95.095,125.873 94.921 C 125.981 94.746,125.900 94.603,125.694 94.603 C 125.409 94.603,125.411 94.492,125.702 94.142 C 125.918 93.882,125.990 93.385,125.868 93.000 C 125.685 92.423,125.750 92.349,126.292 92.522 C 126.777 92.675,126.989 92.549,127.162 92.004 C 127.288 91.607,127.674 90.899,128.021 90.430 C 128.445 89.856,128.604 89.255,128.507 88.592 C 128.420 88.000,128.530 87.467,128.784 87.257 C 129.016 87.064,129.209 87.031,129.211 87.183 C 129.217 87.523,129.830 86.610,129.836 86.251 C 129.839 86.110,129.663 86.095,129.444 86.218 C 129.127 86.398,129.127 86.357,129.444 86.015 C 129.663 85.780,129.841 85.315,129.841 84.982 C 129.841 84.577,129.997 84.436,130.313 84.557 C 130.932 84.795,131.526 83.668,131.364 82.564 C 131.262 81.869,131.361 81.713,131.889 81.728 C 132.390 81.742,132.537 81.550,132.529 80.897 C 132.523 80.430,132.614 80.107,132.731 80.179 C 133.364 80.570,134.104 78.527,133.571 77.857 C 133.356 77.586,133.373 77.460,133.626 77.460 C 133.829 77.460,133.954 77.210,133.903 76.905 C 133.836 76.504,134.009 76.360,134.524 76.387 C 135.023 76.414,135.238 76.247,135.238 75.832 C 135.238 75.505,135.060 75.227,134.841 75.213 C 134.524 75.193,134.524 75.156,134.841 75.028 C 135.060 74.940,135.238 74.607,135.238 74.289 C 135.238 73.867,135.410 73.755,135.873 73.876 C 136.242 73.973,136.508 73.886,136.508 73.669 C 136.508 73.464,136.353 73.391,136.164 73.508 C 135.975 73.625,136.054 73.269,136.340 72.717 C 136.625 72.165,137.077 71.630,137.344 71.527 C 137.630 71.417,137.766 71.099,137.674 70.749 C 137.589 70.424,137.649 70.238,137.807 70.336 C 137.966 70.434,138.095 70.180,138.095 69.772 C 138.095 69.364,138.381 68.785,138.730 68.486 C 139.398 67.914,139.645 66.456,139.007 66.850 C 138.747 67.011,138.741 66.909,138.984 66.475 C 139.167 66.146,139.578 65.877,139.897 65.875 C 140.361 65.873,140.476 65.620,140.476 64.603 C 140.476 63.603,140.611 63.297,141.110 63.161 C 141.459 63.065,141.745 62.780,141.745 62.526 C 141.746 62.271,142.076 61.733,142.480 61.329 C 143.208 60.601,143.348 59.319,142.785 58.533 C 142.617 58.299,142.871 58.108,143.524 57.978 C 144.324 57.818,144.486 57.654,144.353 57.144 C 144.261 56.794,144.326 56.423,144.496 56.317 C 144.666 56.212,144.734 55.940,144.646 55.711 C 144.549 55.459,144.820 55.207,145.339 55.069 C 145.807 54.944,146.020 54.779,145.811 54.702 C 145.603 54.625,145.510 54.361,145.604 54.116 C 145.750 53.734,153.517 53.667,198.704 53.655 L 251.633 53.642 251.562 54.837 M164.765 83.719 C 164.505 83.826,163.894 84.311,163.408 84.797 L 162.524 85.681 162.452 139.953 C 162.413 169.803,162.475 194.167,162.589 194.096 C 162.704 194.025,162.725 194.247,162.635 194.589 C 162.107 196.608,166.184 197.125,176.905 196.399 C 177.734 196.343,178.413 196.416,178.413 196.561 C 178.413 197.193,179.932 196.801,180.109 196.124 C 180.375 195.108,180.634 165.360,180.376 165.520 C 180.256 165.594,180.159 162.739,180.159 159.176 C 180.159 155.614,180.266 152.699,180.397 152.699 C 180.528 152.698,180.618 152.591,180.597 152.460 C 180.473 151.671,180.705 151.187,181.190 151.226 C 181.540 151.253,181.730 151.063,181.701 150.712 C 181.674 150.368,181.947 150.080,182.414 149.963 C 182.830 149.859,183.087 149.640,182.986 149.476 C 182.691 148.998,183.489 148.273,184.071 148.491 C 184.551 148.671,184.557 148.632,184.127 148.094 C 183.850 147.747,183.817 147.597,184.048 147.736 C 184.266 147.867,184.444 147.823,184.444 147.638 C 184.444 147.453,184.802 147.302,185.238 147.302 C 185.834 147.302,186.032 147.469,186.032 147.971 C 186.032 148.522,186.169 148.606,186.806 148.446 C 187.253 148.334,187.676 148.407,187.807 148.619 C 187.958 148.862,187.883 148.907,187.589 148.752 C 187.344 148.622,187.500 148.810,187.937 149.170 L 188.730 149.823 187.988 149.686 C 187.212 149.543,187.304 149.794,188.492 151.053 C 188.710 151.285,188.889 151.668,188.889 151.906 C 188.889 152.144,189.175 152.429,189.524 152.540 C 189.873 152.651,190.159 152.993,190.159 153.302 C 190.159 153.610,190.373 153.862,190.635 153.862 C 190.897 153.862,191.113 153.708,191.116 153.519 C 191.119 153.329,191.248 153.376,191.404 153.622 C 191.560 153.868,191.622 154.241,191.541 154.450 C 191.461 154.659,191.856 155.021,192.419 155.254 C 192.982 155.487,193.275 155.734,193.071 155.802 C 192.197 156.093,193.585 158.406,194.640 158.418 C 195.007 158.422,195.009 158.467,194.649 158.695 C 194.348 158.886,194.324 159.034,194.569 159.185 C 194.763 159.305,194.930 159.287,194.941 159.146 C 194.952 159.004,195.095 159.224,195.259 159.633 C 195.423 160.042,195.843 160.452,196.191 160.543 C 196.542 160.635,196.825 160.976,196.825 161.307 C 196.825 161.693,197.050 161.905,197.460 161.905 C 197.839 161.905,198.110 162.129,198.132 162.460 C 198.152 162.766,198.202 163.159,198.242 163.333 C 198.283 163.508,198.338 163.829,198.364 164.048 C 198.391 164.266,198.674 164.444,198.993 164.444 C 199.387 164.444,199.566 164.668,199.549 165.139 C 199.533 165.576,199.759 165.900,200.159 166.012 C 200.508 166.110,200.794 166.405,200.794 166.667 C 200.794 166.929,201.040 167.124,201.342 167.100 C 201.729 167.070,201.950 167.380,202.095 168.154 C 202.209 168.757,202.569 169.418,202.897 169.622 C 203.224 169.827,203.492 170.261,203.492 170.587 C 203.492 170.992,203.648 171.119,203.985 170.990 C 204.256 170.886,204.399 170.927,204.304 171.081 C 204.067 171.465,204.960 171.772,205.599 171.527 C 205.957 171.389,206.070 171.466,205.963 171.775 C 205.877 172.021,205.572 172.180,205.285 172.129 C 204.997 172.078,204.762 172.161,204.762 172.314 C 204.762 172.713,205.792 172.676,206.322 172.258 C 206.701 171.959,206.712 172.015,206.390 172.619 C 206.088 173.187,206.093 173.334,206.417 173.338 C 206.709 173.342,206.689 173.440,206.349 173.683 C 205.967 173.956,206.013 173.993,206.587 173.867 C 207.000 173.776,207.312 173.865,207.325 174.077 C 207.401 175.262,207.704 176.089,208.216 176.508 C 208.535 176.770,208.890 177.249,209.004 177.573 C 209.130 177.929,209.398 178.089,209.685 177.979 C 210.030 177.847,210.159 178.021,210.159 178.618 C 210.159 179.310,210.277 179.417,210.909 179.296 C 211.520 179.179,211.630 179.264,211.502 179.754 C 211.392 180.176,211.547 180.408,212.022 180.532 C 212.465 180.648,212.698 180.961,212.698 181.440 C 212.698 182.362,213.016 183.212,213.296 183.039 C 213.414 182.966,213.863 183.183,214.295 183.521 C 214.766 183.890,214.857 184.057,214.524 183.938 C 214.218 183.830,213.968 183.833,213.968 183.945 C 213.968 184.056,214.289 184.266,214.681 184.411 C 215.073 184.556,215.394 184.944,215.395 185.274 C 215.396 185.671,215.664 185.911,216.190 185.984 C 216.977 186.095,217.451 186.530,217.451 187.143 C 217.451 187.317,217.312 187.246,217.143 186.984 C 216.877 186.573,216.834 186.581,216.830 187.041 C 216.824 187.758,217.755 188.648,218.295 188.441 C 218.816 188.241,218.839 188.410,218.402 189.227 C 218.030 189.921,218.386 190.043,219.031 189.444 C 219.314 189.181,219.388 189.173,219.249 189.421 C 218.970 189.917,219.677 191.429,220.188 191.429 C 220.410 191.429,220.685 191.722,220.799 192.081 C 220.913 192.440,221.173 192.677,221.376 192.609 C 221.589 192.537,221.881 193.036,222.063 193.782 C 222.259 194.582,222.563 195.079,222.857 195.079 C 223.119 195.079,223.378 195.394,223.433 195.779 C 223.488 196.163,223.803 196.564,224.133 196.669 C 224.927 196.920,227.027 196.517,226.804 196.156 C 226.708 196.000,226.769 195.873,226.939 195.873 C 227.109 195.873,227.296 196.005,227.354 196.167 C 227.481 196.519,244.661 196.693,245.484 196.351 C 245.923 196.168,245.967 196.019,245.684 195.677 C 245.418 195.357,245.416 195.238,245.675 195.238 C 246.266 195.238,246.076 194.660,245.417 194.451 C 245.079 194.344,244.757 193.941,244.703 193.556 C 244.639 193.112,244.343 192.820,243.889 192.756 C 243.233 192.663,243.020 192.216,243.148 191.204 C 243.174 190.993,242.763 190.597,242.233 190.323 C 241.703 190.049,241.270 189.749,241.270 189.656 C 241.270 189.563,241.413 189.575,241.587 189.683 C 241.762 189.790,241.905 189.656,241.905 189.384 C 241.905 188.816,241.241 188.727,240.740 189.229 C 240.498 189.470,240.426 189.332,240.489 188.752 C 240.539 188.304,240.440 187.937,240.271 187.937 C 240.101 187.937,240.050 187.795,240.156 187.623 C 240.263 187.450,240.164 187.380,239.936 187.468 C 239.709 187.555,239.334 187.324,239.103 186.955 C 238.798 186.466,238.790 186.348,239.073 186.524 C 239.328 186.681,239.382 186.633,239.229 186.385 C 239.100 186.177,238.732 186.089,238.412 186.191 C 237.965 186.332,237.865 186.241,237.982 185.797 C 238.239 184.811,237.552 183.492,236.780 183.492 C 236.398 183.492,236.167 183.410,236.268 183.309 C 236.369 183.208,236.022 182.716,235.498 182.215 C 234.974 181.714,234.629 181.167,234.733 180.999 C 234.839 180.828,234.659 180.763,234.325 180.850 C 233.830 180.980,233.755 180.867,233.885 180.186 C 234.014 179.512,233.922 179.365,233.370 179.365 C 232.887 179.365,232.697 179.165,232.694 178.651 C 232.690 178.059,232.631 178.018,232.350 178.413 C 232.090 178.779,232.057 178.685,232.204 178.009 C 232.349 177.346,232.257 177.071,231.833 176.897 C 231.523 176.771,231.270 176.452,231.270 176.190 C 231.270 175.929,231.023 175.713,230.722 175.711 C 230.421 175.709,229.921 175.439,229.611 175.110 C 229.230 174.707,229.202 174.599,229.524 174.778 C 229.934 175.006,229.940 174.968,229.564 174.505 C 229.325 174.210,228.932 173.968,228.691 173.968 C 228.451 173.968,228.271 173.861,228.292 173.730 C 228.395 173.077,228.203 172.773,227.711 172.813 C 227.284 172.848,227.165 172.587,227.155 171.588 C 227.146 170.677,227.008 170.319,226.667 170.318 C 226.405 170.318,226.145 169.996,226.089 169.603 C 226.033 169.210,225.868 168.889,225.722 168.889 C 225.576 168.889,225.518 169.210,225.594 169.603 C 225.719 170.249,225.699 170.242,225.389 169.531 C 225.105 168.878,224.992 168.825,224.725 169.214 C 224.484 169.565,224.456 169.493,224.616 168.928 C 224.782 168.345,224.733 168.233,224.399 168.434 C 224.049 168.645,224.042 168.602,224.362 168.206 C 224.874 167.574,224.489 167.190,223.857 167.701 C 223.469 168.016,223.418 168.015,223.609 167.698 C 223.835 167.322,223.444 167.145,222.698 167.287 C 222.524 167.320,222.560 167.165,222.778 166.943 C 223.431 166.279,223.233 165.559,222.185 164.784 C 221.400 164.204,221.285 163.988,221.629 163.742 C 221.967 163.501,221.943 163.471,221.523 163.605 C 221.226 163.700,220.655 163.499,220.254 163.158 C 219.737 162.720,219.686 162.595,220.079 162.732 C 220.390 162.840,220.635 162.770,220.635 162.574 C 220.635 162.380,220.528 162.239,220.397 162.260 C 219.627 162.381,219.048 162.160,219.048 161.746 C 219.048 161.484,218.896 161.270,218.711 161.270 C 218.527 161.270,218.477 161.435,218.602 161.636 C 218.739 161.858,218.689 161.917,218.476 161.785 C 218.282 161.665,218.196 161.376,218.286 161.142 C 218.376 160.908,218.217 160.484,217.932 160.200 C 217.648 159.915,217.555 159.683,217.725 159.683 C 218.342 159.683,217.672 158.357,216.908 158.066 C 216.402 157.874,216.190 157.603,216.307 157.297 C 216.429 156.978,216.286 156.825,215.863 156.825 C 215.450 156.825,215.238 156.610,215.238 156.190 C 215.238 155.841,215.131 155.572,215.000 155.593 C 214.355 155.695,214.038 155.486,213.694 154.730 C 213.395 154.074,213.227 153.979,212.877 154.269 C 212.545 154.545,212.380 154.541,212.201 154.252 C 212.059 154.021,212.099 153.953,212.304 154.080 C 212.595 154.259,212.655 153.220,212.426 151.976 C 212.401 151.841,212.009 151.589,211.555 151.416 C 210.980 151.198,210.789 150.947,210.925 150.592 C 211.075 150.202,210.971 150.121,210.481 150.249 C 209.896 150.403,209.675 150.051,209.794 149.157 C 209.827 148.905,209.183 148.981,208.697 149.285 C 208.461 149.433,208.398 149.230,208.506 148.669 C 208.635 147.990,208.567 147.870,208.142 148.033 C 207.854 148.144,207.619 148.106,207.619 147.950 C 207.619 147.794,207.869 147.600,208.175 147.520 C 208.593 147.411,208.553 147.366,208.016 147.338 C 207.246 147.299,207.243 147.294,207.170 145.873 C 207.131 145.128,206.973 144.921,206.444 144.921 C 206.072 144.921,205.648 144.791,205.503 144.632 C 205.349 144.464,205.404 144.438,205.635 144.571 C 206.093 144.835,206.147 144.483,205.745 143.848 C 205.589 143.603,205.297 143.516,205.079 143.651 C 204.538 143.986,204.079 143.139,204.516 142.612 C 204.711 142.378,204.738 142.211,204.578 142.242 C 203.301 142.485,202.946 142.212,203.070 141.084 C 203.172 140.163,203.078 139.915,202.577 139.784 C 202.237 139.695,201.869 139.266,201.760 138.830 C 201.646 138.378,201.391 138.102,201.167 138.189 C 200.950 138.272,200.440 138.070,200.034 137.741 C 199.627 137.412,199.425 137.143,199.584 137.143 C 199.743 137.143,200.009 137.254,200.175 137.389 C 200.340 137.525,200.019 137.168,199.460 136.596 C 198.901 136.024,198.307 135.556,198.138 135.556 C 197.958 135.556,197.932 135.197,198.074 134.683 C 198.221 134.149,198.518 133.827,198.837 133.853 C 199.232 133.886,199.314 133.716,199.173 133.154 C 199.008 132.496,199.079 132.429,199.811 132.561 C 200.623 132.709,200.941 132.290,200.312 131.902 C 199.717 131.533,200.347 131.107,201.210 131.294 C 201.800 131.423,201.931 131.387,201.634 131.177 C 201.290 130.934,201.336 130.783,201.870 130.409 C 202.236 130.153,202.441 129.849,202.326 129.733 C 202.211 129.618,202.363 129.524,202.664 129.524 C 202.966 129.524,203.134 129.397,203.038 129.242 C 202.809 128.872,203.625 128.207,204.165 128.322 C 204.398 128.372,204.637 128.091,204.697 127.698 C 204.766 127.247,205.028 126.984,205.409 126.984 C 205.803 126.984,205.951 126.826,205.836 126.527 C 205.740 126.276,205.827 125.812,206.029 125.495 C 206.361 124.977,206.380 124.975,206.224 125.476 C 206.115 125.828,206.219 126.032,206.508 126.032 C 206.803 126.032,206.893 125.845,206.761 125.503 C 206.631 125.164,206.683 125.052,206.907 125.191 C 207.102 125.311,207.346 125.122,207.460 124.762 C 207.573 124.408,207.807 124.206,207.981 124.313 C 208.155 124.420,208.375 124.208,208.471 123.841 C 208.570 123.462,208.903 123.175,209.243 123.175 C 209.572 123.175,209.824 123.067,209.804 122.937 C 209.693 122.235,209.908 121.905,210.476 121.905 C 210.892 121.905,211.111 121.693,211.111 121.291 C 211.111 120.948,211.403 120.585,211.775 120.467 C 212.233 120.322,212.390 120.069,212.281 119.651 C 212.194 119.319,212.247 119.124,212.399 119.217 C 212.748 119.433,214.047 118.162,213.832 117.814 C 213.744 117.672,214.030 117.365,214.466 117.131 C 214.988 116.852,215.194 116.536,215.067 116.210 C 214.688 115.239,214.773 115.088,215.643 115.186 C 216.127 115.241,216.498 115.168,216.465 115.024 C 216.358 114.542,216.888 113.652,217.176 113.830 C 217.737 114.177,218.143 113.615,217.714 113.085 C 217.405 112.704,217.401 112.636,217.698 112.815 C 217.917 112.946,218.095 112.907,218.095 112.727 C 218.095 112.548,218.295 112.478,218.539 112.571 C 218.784 112.665,219.091 112.567,219.223 112.354 C 219.387 112.089,219.321 112.039,219.017 112.197 C 218.772 112.325,218.895 112.144,219.290 111.795 C 219.685 111.447,220.136 111.114,220.293 111.057 C 220.449 110.999,220.626 110.667,220.685 110.317 C 220.745 109.968,221.044 109.496,221.349 109.268 C 221.655 109.040,221.905 108.629,221.905 108.356 C 221.905 107.946,221.990 107.930,222.389 108.260 C 223.030 108.793,223.311 108.466,222.889 107.678 C 222.627 107.190,222.657 107.007,223.022 106.867 C 223.280 106.768,223.492 106.825,223.492 106.994 C 223.492 107.163,223.715 107.302,223.987 107.302 C 224.259 107.302,224.394 107.159,224.286 106.984 C 224.178 106.810,224.241 106.667,224.426 106.667 C 224.611 106.667,224.762 106.437,224.762 106.157 C 224.762 105.833,224.937 105.713,225.238 105.829 C 225.500 105.930,225.714 105.873,225.714 105.704 C 225.714 105.535,225.722 105.290,225.731 105.159 C 225.741 105.028,226.098 104.738,226.525 104.514 C 226.952 104.290,227.302 103.914,227.302 103.680 C 227.302 103.445,227.543 103.056,227.839 102.817 C 228.296 102.446,228.336 102.447,228.107 102.827 C 227.919 103.139,227.955 103.201,228.227 103.033 C 228.440 102.901,228.539 102.595,228.446 102.354 C 228.353 102.112,228.558 101.764,228.901 101.581 C 229.243 101.398,229.524 101.038,229.524 100.782 C 229.524 100.527,229.709 100.317,229.936 100.317 C 230.460 100.317,232.698 98.041,232.698 97.508 C 232.698 97.278,232.528 97.202,232.302 97.329 C 232.003 97.498,232.006 97.444,232.314 97.114 C 232.539 96.872,232.967 96.672,233.265 96.670 C 233.564 96.668,233.826 96.488,233.848 96.270 C 233.871 96.052,233.907 95.649,233.929 95.375 C 233.957 95.016,234.167 94.934,234.683 95.079 C 235.242 95.236,235.293 95.207,234.921 94.946 C 234.551 94.687,234.541 94.612,234.875 94.608 C 235.112 94.605,235.232 94.411,235.142 94.177 C 235.025 93.870,235.197 93.792,235.756 93.899 C 236.184 93.980,236.511 93.922,236.484 93.770 C 236.362 93.108,236.539 92.698,236.945 92.698 C 237.186 92.698,237.579 92.457,237.818 92.161 C 238.058 91.866,238.105 91.713,237.923 91.822 C 237.737 91.933,237.577 91.716,237.559 91.327 C 237.540 90.946,237.594 90.813,237.678 91.032 C 237.897 91.601,239.032 91.522,239.263 90.920 C 239.370 90.641,239.258 90.286,239.015 90.132 C 238.587 89.861,238.966 89.687,239.743 89.797 C 239.863 89.814,240.051 89.546,240.161 89.200 C 240.338 88.643,240.895 88.403,241.691 88.542 C 241.835 88.567,241.871 88.332,241.772 88.019 C 241.649 87.630,241.816 87.352,242.302 87.138 C 243.390 86.659,243.346 85.799,242.170 84.588 L 241.111 83.499 232.778 83.495 C 224.865 83.492,224.412 83.524,223.810 84.127 C 223.460 84.476,222.947 84.762,222.669 84.762 C 222.390 84.762,222.089 85.043,221.999 85.386 C 221.910 85.730,221.553 86.101,221.207 86.211 C 220.766 86.350,220.627 86.602,220.743 87.046 C 220.875 87.552,220.784 87.649,220.296 87.521 C 219.958 87.433,219.762 87.490,219.860 87.649 C 219.957 87.807,219.886 87.937,219.701 87.937 C 219.516 87.937,219.365 88.209,219.365 88.542 C 219.365 88.991,219.201 89.104,218.730 88.981 C 218.252 88.856,218.095 88.971,218.095 89.450 C 218.095 89.825,217.826 90.155,217.436 90.257 C 217.017 90.367,216.813 90.640,216.875 91.008 C 216.981 91.632,216.092 93.130,215.794 92.831 C 215.516 92.553,215.168 93.915,215.415 94.315 C 215.570 94.566,215.440 94.563,214.959 94.306 C 214.379 93.996,214.286 94.032,214.286 94.573 C 214.286 94.918,214.144 95.288,213.972 95.395 C 213.792 95.506,213.739 95.378,213.847 95.096 C 213.951 94.825,213.893 94.603,213.719 94.603 C 213.312 94.603,212.910 95.476,212.747 96.716 C 212.720 96.921,212.417 97.010,212.063 96.917 C 211.409 96.746,211.178 97.268,211.751 97.622 C 212.264 97.939,211.752 98.457,211.124 98.258 C 210.601 98.092,210.012 98.980,210.124 99.762 C 210.143 99.893,209.944 100.000,209.683 100.000 C 209.421 100.000,209.202 99.821,209.197 99.603 C 209.191 99.384,209.042 99.456,208.862 99.764 C 208.683 100.071,208.624 100.463,208.729 100.634 C 208.835 100.805,208.723 100.869,208.480 100.776 C 207.851 100.534,207.129 101.443,207.680 101.784 C 207.969 101.962,207.857 102.095,207.298 102.237 C 206.864 102.347,206.544 102.603,206.587 102.806 C 206.631 103.009,206.515 103.175,206.330 103.175 C 206.146 103.175,206.085 103.321,206.195 103.500 C 206.306 103.679,206.279 103.805,206.135 103.780 C 205.487 103.667,205.079 103.843,205.079 104.235 C 205.079 104.469,204.716 104.826,204.272 105.028 C 203.827 105.230,203.487 105.575,203.516 105.793 C 203.647 106.806,203.449 107.302,202.910 107.302 C 202.078 107.302,201.849 107.644,202.304 108.206 C 202.578 108.545,202.584 108.625,202.324 108.469 C 202.102 108.335,201.868 108.503,201.747 108.884 C 201.530 109.570,200.952 109.766,200.952 109.153 C 200.952 108.950,200.861 108.875,200.748 108.987 C 200.636 109.099,200.725 109.409,200.946 109.675 C 201.167 109.941,201.259 110.177,201.150 110.198 C 201.041 110.220,200.845 110.258,200.714 110.283 C 200.583 110.307,200.276 110.454,200.030 110.609 C 199.724 110.804,199.655 110.777,199.811 110.525 C 199.936 110.324,199.883 110.159,199.695 110.159 C 199.483 110.159,199.434 110.480,199.565 111.005 C 199.731 111.666,199.677 111.812,199.316 111.673 C 199.016 111.558,198.708 111.829,198.434 112.447 C 198.203 112.970,197.921 113.248,197.808 113.065 C 197.553 112.652,197.006 112.991,196.733 113.730 C 196.620 114.036,196.326 114.286,196.079 114.286 C 195.832 114.286,195.555 114.571,195.464 114.921 C 195.372 115.270,195.080 115.556,194.813 115.556 C 194.547 115.556,194.238 115.841,194.127 116.190 C 194.016 116.540,193.785 116.825,193.613 116.825 C 193.441 116.825,193.089 117.332,192.831 117.950 C 192.572 118.569,192.151 119.156,191.895 119.254 C 191.638 119.353,191.429 119.703,191.429 120.034 C 191.429 120.416,191.205 120.635,190.815 120.635 C 190.333 120.635,190.232 120.806,190.345 121.429 C 190.465 122.091,190.365 122.222,189.742 122.222 C 188.742 122.222,188.526 122.497,188.932 123.255 C 189.155 123.672,189.159 123.818,188.942 123.684 C 188.762 123.572,188.375 123.805,188.081 124.201 L 187.547 124.921 187.712 124.206 C 187.803 123.813,187.748 123.571,187.589 123.669 C 187.431 123.767,187.302 123.994,187.302 124.174 C 187.302 124.354,186.993 124.752,186.615 125.057 C 186.084 125.488,186.023 125.671,186.347 125.871 C 186.642 126.054,186.689 126.008,186.508 125.714 C 186.327 125.422,186.374 125.375,186.667 125.556 C 186.935 125.721,187.005 125.688,186.866 125.462 C 186.632 125.083,187.870 125.206,188.218 125.596 C 188.325 125.717,188.173 125.730,187.880 125.625 C 187.586 125.520,187.171 125.648,186.952 125.912 C 186.703 126.212,186.278 126.321,185.812 126.204 C 185.222 126.056,185.006 126.182,184.765 126.818 C 184.597 127.259,184.242 127.619,183.976 127.619 C 183.710 127.619,183.509 127.726,183.530 127.857 C 183.633 128.515,183.444 128.889,183.008 128.889 C 182.436 128.889,181.905 130.132,181.905 131.472 C 181.905 132.340,181.859 132.381,181.406 131.927 C 180.718 131.240,180.671 131.283,180.829 132.460 C 180.938 133.271,180.898 133.377,180.639 132.957 C 180.417 132.597,180.336 124.994,180.393 109.703 C 180.439 97.208,180.361 86.984,180.219 86.984 C 180.078 86.984,180.076 86.806,180.214 86.587 C 180.692 85.835,180.486 84.919,179.697 84.286 C 178.900 83.646,166.124 83.161,164.765 83.719 M177.542 136.160 C 177.891 136.609,177.873 136.617,177.381 136.231 C 176.859 135.822,176.830 134.335,176.903 111.945 L 176.980 88.095 177.063 111.875 C 177.128 130.245,177.237 135.769,177.542 136.160 M97.829 136.667 C 97.770 137.190,97.448 137.914,97.115 138.274 C 96.334 139.118,96.347 139.566,97.157 139.778 C 97.693 139.918,97.793 140.171,97.731 141.225 C 97.690 141.927,97.524 142.421,97.364 142.321 C 97.203 142.222,96.947 142.338,96.795 142.578 C 96.616 142.860,96.516 142.423,96.513 141.349 C 96.509 139.896,96.427 139.683,95.873 139.683 C 95.450 139.683,95.238 139.471,95.238 139.048 C 95.238 138.624,95.450 138.413,95.873 138.413 C 96.415 138.413,96.508 138.201,96.508 136.962 C 96.508 135.639,96.571 135.520,97.222 135.613 C 97.811 135.697,97.918 135.881,97.829 136.667 M177.063 183.254 C 177.015 188.885,176.975 184.278,176.975 173.016 C 176.975 161.754,177.015 157.147,177.063 162.778 C 177.112 168.409,177.112 177.623,177.063 183.254 M180.219 174.206 C 180.139 174.512,180.074 174.262,180.074 173.651 C 180.074 173.040,180.139 172.790,180.219 173.095 C 180.299 173.401,180.299 173.901,180.219 174.206 " stroke="none" fill="#6c2c9c" fill-rule="evenodd"></path><path id="path2" d="M276.568 83.730 C 276.602 83.861,276.518 84.438,276.382 85.013 C 276.219 85.699,276.265 86.216,276.517 86.518 C 276.727 86.772,277.399 88.010,278.010 89.269 C 279.056 91.425,280.329 92.978,281.617 93.667 C 282.425 94.099,356.355 94.073,357.164 93.640 C 357.718 93.343,357.778 92.943,357.778 89.531 C 357.778 84.587,358.005 84.762,351.580 84.762 C 348.948 84.762,346.658 84.627,346.492 84.461 C 345.927 83.898,276.427 83.172,276.568 83.730 M41.155 84.286 C 41.055 84.548,40.607 84.762,40.160 84.762 L 39.348 84.762 39.436 89.286 L 39.524 93.810 60.304 93.891 C 73.520 93.943,81.199 94.088,81.399 94.288 C 81.902 94.791,113.725 94.711,114.269 94.206 C 114.520 93.974,114.613 93.959,114.495 94.170 C 114.384 94.369,114.827 94.266,115.480 93.943 C 116.658 93.359,117.105 92.752,119.024 89.127 C 119.835 87.594,119.951 87.111,119.743 86.111 L 119.495 84.921 89.986 84.845 C 72.539 84.801,60.217 84.649,59.841 84.473 C 58.636 83.910,41.365 83.737,41.155 84.286 M303.273 84.047 C 300.796 84.100,296.653 84.100,294.067 84.047 C 291.481 83.994,293.508 83.950,298.571 83.950 C 303.635 83.949,305.751 83.993,303.273 84.047 M322.797 84.364 C 320.233 84.418,315.947 84.418,313.274 84.365 C 310.600 84.311,312.698 84.268,317.937 84.268 C 323.175 84.267,325.362 84.311,322.797 84.364 M51.520 84.678 C 50.609 84.742,49.038 84.743,48.027 84.679 C 47.017 84.616,47.762 84.564,49.683 84.563 C 51.603 84.562,52.430 84.614,51.520 84.678 M338.186 84.678 C 337.276 84.742,335.704 84.743,334.694 84.679 C 333.684 84.616,334.429 84.564,336.349 84.563 C 338.270 84.562,339.096 84.614,338.186 84.678 M109.939 94.205 C 107.984 94.261,104.698 94.261,102.637 94.205 C 100.576 94.150,102.175 94.105,106.190 94.104 C 110.206 94.104,111.893 94.149,109.939 94.205 M38.234 182.636 C 38.147 182.863,38.116 184.899,38.165 187.160 L 38.254 191.270 46.172 191.355 C 52.371 191.421,54.197 191.535,54.584 191.879 C 55.297 192.512,56.356 192.532,89.524 192.536 L 119.524 192.540 119.618 191.420 C 119.726 190.138,117.258 185.004,116.079 184.055 C 115.455 183.553,114.140 183.506,100.626 183.499 C 86.253 183.492,85.841 183.475,85.312 182.857 C 84.621 182.050,38.542 181.834,38.234 182.636 M281.079 183.251 C 280.553 183.820,279.756 185.071,279.306 186.032 C 276.597 191.824,276.244 191.429,284.114 191.429 C 289.539 191.429,290.435 191.497,290.599 191.927 C 290.758 192.341,291.297 192.408,293.809 192.323 C 295.469 192.268,296.827 192.329,296.826 192.460 C 296.826 192.591,310.218 192.691,326.587 192.681 L 356.349 192.663 357.074 191.744 C 358.047 190.512,358.041 183.935,357.067 184.012 C 356.763 184.036,356.593 183.929,356.689 183.774 C 356.789 183.611,349.473 183.492,339.384 183.492 C 322.400 183.492,321.887 183.474,321.278 182.865 C 320.667 182.254,320.141 182.237,301.342 182.227 L 282.035 182.217 281.079 183.251 " stroke="none" fill="#7c7c7c" fill-rule="evenodd"></path><path id="path3" d="M275.828 85.556 C 275.620 86.767,275.686 87.845,275.991 88.236 C 276.278 88.602,276.254 88.639,275.873 88.422 C 275.611 88.273,275.733 88.520,276.143 88.971 C 276.640 89.517,276.889 90.178,276.889 90.949 C 276.889 92.073,277.740 92.970,278.017 92.138 C 278.083 91.942,278.336 91.858,278.579 91.952 C 279.218 92.197,278.967 91.230,277.770 88.839 C 276.280 85.865,275.888 85.203,275.828 85.556 M119.404 88.417 C 119.034 89.046,118.730 89.676,118.730 89.817 C 118.730 89.958,118.463 90.414,118.137 90.830 C 117.810 91.247,117.452 92.087,117.341 92.698 C 117.176 93.612,117.196 93.679,117.456 93.075 C 117.630 92.671,117.916 92.429,118.093 92.538 C 118.269 92.647,118.413 92.585,118.413 92.400 C 118.413 92.215,118.627 92.063,118.889 92.063 C 119.221 92.063,119.365 91.728,119.365 90.952 C 119.365 90.080,119.492 89.841,119.956 89.841 C 120.450 89.841,120.526 89.647,120.417 88.662 C 120.245 87.098,120.191 87.085,119.404 88.417 M176.903 111.945 C 176.830 134.335,176.859 135.822,177.381 136.231 C 177.873 136.617,177.891 136.609,177.542 136.160 C 177.237 135.769,177.128 130.245,177.063 111.875 L 176.980 88.095 176.903 111.945 M97.460 135.844 C 97.460 136.024,97.246 136.088,96.984 135.988 C 96.608 135.844,96.508 136.080,96.508 137.109 C 96.508 138.201,96.405 138.413,95.873 138.413 C 95.450 138.413,95.238 138.624,95.238 139.048 C 95.238 139.471,95.450 139.683,95.873 139.683 C 96.427 139.683,96.509 139.896,96.513 141.349 C 96.516 142.423,96.616 142.860,96.795 142.578 C 96.947 142.338,97.203 142.222,97.364 142.321 C 97.524 142.421,97.690 141.927,97.731 141.225 C 97.793 140.171,97.693 139.918,97.157 139.778 C 96.345 139.566,96.327 138.992,97.110 138.284 C 97.752 137.703,98.165 135.954,97.725 135.682 C 97.579 135.592,97.460 135.665,97.460 135.844 M176.975 173.016 C 176.975 184.278,177.015 188.885,177.063 183.254 C 177.112 177.623,177.112 168.409,177.063 162.778 C 177.015 157.147,176.975 161.754,176.975 173.016 M180.074 173.651 C 180.074 174.262,180.139 174.512,180.219 174.206 C 180.299 173.901,180.299 173.401,180.219 173.095 C 180.139 172.790,180.074 173.040,180.074 173.651 M280.000 183.800 C 280.000 183.969,279.786 184.025,279.524 183.924 C 278.637 183.584,277.960 184.055,278.456 184.668 C 278.754 185.035,278.765 185.127,278.492 184.963 C 278.239 184.811,278.095 184.912,278.095 185.242 C 278.095 185.756,277.326 186.744,277.101 186.519 C 276.835 186.253,276.845 189.400,277.111 189.811 C 277.327 190.145,277.570 189.865,278.076 188.700 C 278.448 187.844,279.171 186.321,279.682 185.317 C 280.194 184.313,280.474 183.492,280.306 183.492 C 280.138 183.492,280.000 183.630,280.000 183.800 M116.993 184.431 C 116.735 184.847,119.445 189.961,119.841 189.806 C 120.016 189.738,120.139 189.504,120.115 189.286 C 120.090 189.067,120.198 188.889,120.353 188.889 C 120.916 188.889,120.617 188.232,119.907 187.909 C 119.303 187.633,119.202 187.386,119.312 186.444 C 119.414 185.575,119.349 185.370,119.033 185.564 C 118.742 185.744,118.679 185.671,118.816 185.313 C 119.116 184.531,118.225 183.944,117.558 184.485 C 117.193 184.781,117.097 184.793,117.259 184.524 C 117.391 184.306,117.426 184.127,117.339 184.127 C 117.252 184.127,117.096 184.264,116.993 184.431 M226.811 196.168 C 226.912 196.330,226.670 196.525,226.275 196.601 C 225.879 196.677,229.627 196.725,234.603 196.708 L 243.651 196.678 235.476 196.588 C 230.393 196.531,227.302 196.379,227.302 196.185 C 227.302 196.013,227.150 195.873,226.965 195.873 C 226.780 195.873,226.711 196.006,226.811 196.168 M172.222 196.508 L 166.825 196.690 172.479 196.758 C 176.184 196.802,178.065 196.716,177.937 196.508 C 177.829 196.333,177.713 196.221,177.680 196.258 C 177.646 196.295,175.190 196.408,172.222 196.508 " stroke="none" fill="#7434a4" fill-rule="evenodd"></path><path id="path4" d="M136.190 51.727 C 136.190 51.956,135.984 52.052,135.714 51.949 C 135.207 51.754,135.046 52.225,135.520 52.517 C 135.865 52.731,136.678 51.811,136.394 51.527 C 136.282 51.415,136.190 51.505,136.190 51.727 M260.484 53.638 C 260.370 53.822,260.507 54.061,260.787 54.168 C 261.486 54.436,261.703 54.142,261.147 53.681 C 260.834 53.421,260.627 53.407,260.484 53.638 M173.254 53.889 C 187.615 53.935,211.115 53.935,225.476 53.889 C 239.837 53.843,228.087 53.806,199.365 53.806 C 170.643 53.806,158.893 53.843,173.254 53.889 M265.202 60.168 C 265.469 60.435,265.608 60.899,265.512 61.200 C 265.369 61.646,265.396 61.662,265.662 61.287 C 266.024 60.777,265.603 59.683,265.046 59.683 C 264.865 59.683,264.935 59.901,265.202 60.168 M131.534 61.087 C 131.636 61.352,131.370 61.760,130.891 62.074 C 130.249 62.495,130.168 62.668,130.514 62.887 C 131.193 63.317,131.745 63.225,131.549 62.714 C 131.452 62.460,131.488 62.067,131.630 61.841 C 132.020 61.216,132.046 60.635,131.684 60.635 C 131.506 60.635,131.439 60.838,131.534 61.087 M128.664 65.516 C 128.812 65.961,129.735 66.022,129.735 65.588 C 129.735 65.383,129.472 65.215,129.150 65.215 C 128.827 65.215,128.609 65.351,128.664 65.516 M124.846 73.380 C 124.807 73.889,124.846 73.890,125.418 73.400 C 125.756 73.111,126.032 72.866,126.032 72.855 C 126.032 72.495,124.874 73.008,124.846 73.380 M180.392 109.841 C 180.356 122.325,180.432 132.705,180.560 132.907 C 180.771 133.238,180.759 101.918,180.544 91.429 C 180.496 89.071,180.428 97.357,180.392 109.841 M162.377 140.635 C 162.377 169.532,162.415 181.353,162.460 166.905 C 162.506 152.456,162.506 128.813,162.460 114.365 C 162.415 99.917,162.377 111.738,162.377 140.635 M240.165 89.187 C 240.049 89.552,239.822 89.769,239.660 89.668 C 239.498 89.568,239.365 89.638,239.365 89.823 C 239.365 90.007,239.503 90.159,239.671 90.159 C 240.031 90.159,240.758 88.906,240.531 88.679 C 240.445 88.594,240.281 88.822,240.165 89.187 M119.365 91.130 C 119.365 91.696,119.497 92.019,119.683 91.905 C 119.857 91.797,120.000 91.360,120.000 90.934 C 120.000 90.507,119.857 90.159,119.683 90.159 C 119.508 90.159,119.365 90.596,119.365 91.130 M213.727 94.203 C 213.506 94.279,213.177 94.650,212.995 95.028 C 212.693 95.652,212.704 95.664,213.113 95.159 C 213.360 94.853,213.669 94.603,213.799 94.603 C 213.930 94.603,213.941 94.853,213.825 95.159 C 213.665 95.577,213.704 95.625,213.979 95.351 C 214.446 94.888,214.255 94.022,213.727 94.203 M222.728 107.350 C 222.852 107.551,222.691 107.908,222.369 108.143 C 222.047 108.379,221.925 108.571,222.098 108.571 C 222.545 108.571,223.175 107.885,223.175 107.397 C 223.175 107.170,223.023 106.984,222.838 106.984 C 222.653 106.984,222.604 107.149,222.728 107.350 M221.164 109.418 C 220.861 109.721,220.903 110.159,221.236 110.159 C 221.392 110.159,221.602 109.944,221.702 109.683 C 221.888 109.199,221.550 109.032,221.164 109.418 M187.548 124.207 C 187.671 124.677,187.768 124.719,187.976 124.392 C 188.356 123.792,188.318 123.598,187.821 123.598 C 187.551 123.598,187.448 123.827,187.548 124.207 M186.324 125.585 C 185.778 126.244,186.237 126.546,186.903 125.965 C 187.209 125.698,187.675 125.552,187.937 125.640 C 188.198 125.729,188.325 125.706,188.218 125.589 C 187.809 125.145,186.692 125.143,186.324 125.585 M104.965 134.762 C 105.043 134.966,105.301 135.132,105.539 135.132 C 105.777 135.132,105.907 134.966,105.829 134.762 C 105.751 134.558,105.492 134.392,105.255 134.392 C 105.017 134.392,104.886 134.558,104.965 134.762 M299.386 147.486 C 299.837 148.029,300.419 148.084,300.247 147.567 C 300.180 147.364,299.874 147.162,299.568 147.117 C 299.122 147.051,299.086 147.124,299.386 147.486 M107.169 147.577 C 107.076 147.728,107.288 148.113,107.640 148.432 C 108.207 148.945,108.257 148.950,108.075 148.474 C 107.961 148.178,107.705 147.934,107.506 147.932 C 107.306 147.929,107.357 147.788,107.619 147.619 C 107.905 147.434,107.944 147.309,107.717 147.306 C 107.509 147.304,107.263 147.425,107.169 147.577 M187.697 149.572 C 187.287 149.982,187.720 151.111,188.288 151.111 C 188.469 151.111,188.391 150.885,188.115 150.609 C 187.580 150.074,187.747 149.369,188.325 149.726 C 188.531 149.854,188.578 149.792,188.443 149.573 C 188.164 149.121,188.149 149.121,187.697 149.572 M180.159 159.176 C 180.159 162.739,180.266 165.588,180.397 165.507 C 180.528 165.426,180.635 162.511,180.635 159.029 C 180.635 155.547,180.528 152.698,180.397 152.699 C 180.266 152.699,180.159 155.614,180.159 159.176 M205.132 171.707 C 204.787 171.926,204.796 172.009,205.180 172.156 C 205.671 172.344,206.032 172.148,206.032 171.693 C 206.032 171.357,205.675 171.363,205.132 171.707 M180.458 184.603 C 180.458 189.841,180.501 192.029,180.555 189.464 C 180.608 186.899,180.608 182.614,180.555 179.940 C 180.502 177.267,180.458 179.365,180.458 184.603 M119.365 186.945 C 119.365 187.333,119.568 187.619,119.841 187.619 C 120.103 187.619,120.317 187.494,120.317 187.340 C 120.317 187.187,120.103 186.884,119.841 186.667 C 119.443 186.336,119.365 186.382,119.365 186.945 M120.635 188.654 C 120.635 188.874,120.902 189.221,121.229 189.425 C 121.775 189.766,121.795 189.734,121.467 189.027 C 121.085 188.203,120.635 188.001,120.635 188.654 M277.421 192.222 C 277.399 192.310,277.361 192.488,277.336 192.619 C 277.312 192.750,277.162 193.071,277.004 193.333 C 276.826 193.628,276.977 193.581,277.398 193.212 C 277.773 192.883,278.004 192.490,277.910 192.339 C 277.722 192.034,277.482 191.977,277.421 192.222 M262.633 200.631 C 262.537 200.996,262.315 201.171,262.107 201.047 C 261.908 200.928,261.942 201.072,262.182 201.368 C 262.421 201.663,262.695 201.905,262.790 201.905 C 262.885 201.905,262.877 201.819,262.772 201.713 C 262.666 201.608,262.710 201.180,262.870 200.761 C 263.029 200.342,263.078 200.000,262.978 200.000 C 262.879 200.000,262.723 200.284,262.633 200.631 M269.044 208.894 C 268.935 209.072,268.698 209.126,268.518 209.014 C 268.318 208.891,268.331 209.075,268.551 209.485 C 268.749 209.856,268.986 210.159,269.078 210.159 C 269.169 210.159,269.152 210.010,269.039 209.827 C 268.926 209.645,269.007 209.288,269.218 209.034 C 269.429 208.779,269.521 208.571,269.423 208.571 C 269.324 208.571,269.154 208.717,269.044 208.894 M255.952 214.365 C 255.996 214.583,255.877 214.734,255.688 214.700 C 255.499 214.666,255.344 214.845,255.344 215.098 C 255.344 215.493,255.419 215.490,255.872 215.080 C 256.163 214.817,256.504 214.705,256.630 214.831 C 256.756 214.957,256.765 214.814,256.649 214.514 C 256.410 213.889,255.833 213.766,255.952 214.365 M257.262 232.778 C 257.310 233.827,257.338 233.837,257.798 232.978 C 258.009 232.583,258.025 232.387,257.837 232.503 C 257.659 232.613,257.449 232.523,257.369 232.304 C 257.289 232.084,257.241 232.298,257.262 232.778 " stroke="none" fill="#742ca4" fill-rule="evenodd"></path></g></svg>